# Procedural Forest Terrain Mesh
o SM_ForestLandscape
v -3000.000 -3000.000 1198.633
v -3000.000 -2625.000 1004.889
v -3000.000 -2250.000 840.535
v -3000.000 -1875.000 705.104
v -3000.000 -1500.000 597.944
v -3000.000 -1125.000 517.833
v -3000.000 -750.000 462.922
v -3000.000 -375.000 431.115
v -3000.000 0.000 420.728
v -3000.000 375.000 431.115
v -3000.000 750.000 462.922
v -3000.000 1125.000 517.833
v -3000.000 1500.000 597.944
v -3000.000 1875.000 705.104
v -3000.000 2250.000 840.535
v -3000.000 2625.000 1004.889
v -3000.000 3000.000 1198.633
v -2625.000 -3000.000 1045.027
v -2625.000 -2625.000 844.369
v -2625.000 -2250.000 657.671
v -2625.000 -1875.000 500.630
v -2625.000 -1500.000 388.319
v -2625.000 -1125.000 325.518
v -2625.000 -750.000 302.970
v -2625.000 -375.000 301.847
v -2625.000 0.000 303.958
v -2625.000 375.000 301.847
v -2625.000 750.000 302.970
v -2625.000 1125.000 325.518
v -2625.000 1500.000 388.319
v -2625.000 1875.000 500.630
v -2625.000 2250.000 657.671
v -2625.000 2625.000 844.369
v -2625.000 3000.000 1045.027
v -2250.000 -3000.000 897.533
v -2250.000 -2625.000 697.808
v -2250.000 -2250.000 506.389
v -2250.000 -1875.000 345.257
v -2250.000 -1500.000 235.501
v -2250.000 -1125.000 183.946
v -2250.000 -750.000 177.948
v -2250.000 -375.000 191.530
v -2250.000 0.000 199.503
v -2250.000 375.000 191.530
v -2250.000 750.000 177.948
v -2250.000 1125.000 183.946
v -2250.000 1500.000 235.501
v -2250.000 1875.000 345.257
v -2250.000 2250.000 506.389
v -2250.000 2625.000 697.808
v -2250.000 3000.000 897.533
v -1875.000 -3000.000 745.908
v -1875.000 -2625.000 557.628
v -1875.000 -2250.000 385.395
v -1875.000 -1875.000 243.935
v -1875.000 -1500.000 147.058
v -1875.000 -1125.000 98.278
v -1875.000 -750.000 87.130
v -1875.000 -375.000 93.576
v -1875.000 0.000 98.359
v -1875.000 375.000 93.576
v -1875.000 750.000 87.130
v -1875.000 1125.000 98.278
v -1875.000 1500.000 147.058
v -1875.000 1875.000 243.935
v -1875.000 2250.000 385.395
v -1875.000 2625.000 557.628
v -1875.000 3000.000 745.908
v -1500.000 -3000.000 598.890
v -1500.000 -2625.000 429.123
v -1500.000 -2250.000 292.499
v -1500.000 -1875.000 187.196
v -1500.000 -1500.000 110.674
v -1500.000 -1125.000 59.559
v -1500.000 -750.000 29.411
v -1500.000 -375.000 14.819
v -1500.000 0.000 10.689
v -1500.000 375.000 14.819
v -1500.000 750.000 29.411
v -1500.000 1125.000 59.559
v -1500.000 1500.000 110.674
v -1500.000 1875.000 187.196
v -1500.000 2250.000 292.499
v -1500.000 2625.000 429.123
v -1500.000 3000.000 598.890
v -1125.000 -3000.000 478.372
v -1125.000 -2625.000 326.464
v -1125.000 -2250.000 224.749
v -1125.000 -1875.000 155.276
v -1125.000 -1500.000 99.697
v -1125.000 -1125.000 48.253
v -1125.000 -750.000 2.651
v -1125.000 -375.000 -28.972
v -1125.000 0.000 -40.804
v -1125.000 375.000 -28.972
v -1125.000 750.000 2.651
v -1125.000 1125.000 48.253
v -1125.000 1500.000 99.697
v -1125.000 1875.000 155.276
v -1125.000 2250.000 224.749
v -1125.000 2625.000 326.464
v -1125.000 3000.000 478.372
v -750.000 -3000.000 405.940
v -750.000 -2625.000 263.509
v -750.000 -2250.000 178.894
v -750.000 -1875.000 127.933
v -750.000 -1500.000 86.409
v -750.000 -1125.000 42.789
v -750.000 -750.000 -0.473
v -750.000 -375.000 -40.471
v -750.000 0.000 -56.998
v -750.000 375.000 -40.471
v -750.000 750.000 -0.473
v -750.000 1125.000 42.789
v -750.000 1500.000 86.409
v -750.000 1875.000 127.933
v -750.000 2250.000 178.894
v -750.000 2625.000 263.509
v -750.000 3000.000 405.940
v -375.000 -3000.000 389.657
v -375.000 -2625.000 244.865
v -375.000 -2250.000 152.069
v -375.000 -1875.000 94.521
v -375.000 -1500.000 55.623
v -375.000 -1125.000 28.026
v -375.000 -750.000 -0.333
v -375.000 -375.000 0.000
v -375.000 0.000 0.000
v -375.000 375.000 0.000
v -375.000 750.000 -0.333
v -375.000 1125.000 28.026
v -375.000 1500.000 55.623
v -375.000 1875.000 94.521
v -375.000 2250.000 152.069
v -375.000 2625.000 244.865
v -375.000 3000.000 389.657
v 0.000 -3000.000 418.837
v 0.000 -2625.000 262.500
v 0.000 -2250.000 142.521
v 0.000 -1875.000 58.899
v 0.000 -1500.000 11.634
v 0.000 -1125.000 0.000
v 0.000 -750.000 0.000
v 0.000 -375.000 0.000
v 0.000 0.000 0.000
v 0.000 375.000 0.000
v 0.000 750.000 0.000
v 0.000 1125.000 0.000
v 0.000 1500.000 11.634
v 0.000 1875.000 58.899
v 0.000 2250.000 142.521
v 0.000 2625.000 262.500
v 0.000 3000.000 418.837
v 375.000 -3000.000 469.887
v 375.000 -2625.000 299.956
v 375.000 -2250.000 150.072
v 375.000 -1875.000 36.593
v 375.000 -1500.000 -24.642
v 375.000 -1125.000 -28.026
v 375.000 -750.000 0.333
v 375.000 -375.000 0.000
v 375.000 0.000 0.000
v 375.000 375.000 0.000
v 375.000 750.000 0.333
v 375.000 1125.000 -28.026
v 375.000 1500.000 -24.642
v 375.000 1875.000 36.593
v 375.000 2250.000 150.072
v 375.000 2625.000 299.956
v 375.000 3000.000 469.887
v 750.000 -3000.000 519.873
v 750.000 -2625.000 341.742
v 750.000 -2250.000 176.057
v 750.000 -1875.000 45.671
v 750.000 -1500.000 -27.571
v 750.000 -1125.000 -36.809
v 750.000 -750.000 0.473
v 750.000 -375.000 40.471
v 750.000 0.000 56.998
v 750.000 375.000 40.471
v 750.000 750.000 0.473
v 750.000 1125.000 -36.809
v 750.000 1500.000 -27.571
v 750.000 1875.000 45.671
v 750.000 2250.000 176.057
v 750.000 2625.000 341.742
v 750.000 3000.000 519.873
v 1125.000 -3000.000 559.934
v 1125.000 -2625.000 382.469
v 1125.000 -2250.000 222.718
v 1125.000 -1875.000 96.386
v 1125.000 -1500.000 18.101
v 1125.000 -1125.000 -8.729
v 1125.000 -750.000 3.328
v 1125.000 -375.000 28.972
v 1125.000 0.000 40.804
v 1125.000 375.000 28.972
v 1125.000 750.000 3.328
v 1125.000 1125.000 -8.729
v 1125.000 1500.000 18.101
v 1125.000 1875.000 96.386
v 1125.000 2250.000 222.718
v 1125.000 2625.000 382.469
v 1125.000 3000.000 559.934
v 1500.000 -3000.000 600.781
v 1500.000 -2625.000 430.421
v 1500.000 -2250.000 292.452
v 1500.000 -1875.000 185.831
v 1500.000 -1500.000 108.783
v 1500.000 -1125.000 58.239
v 1500.000 -750.000 29.427
v 1500.000 -375.000 16.162
v 1500.000 0.000 12.580
v 1500.000 375.000 16.162
v 1500.000 750.000 29.427
v 1500.000 1125.000 58.239
v 1500.000 1500.000 108.783
v 1500.000 1875.000 185.831
v 1500.000 2250.000 292.452
v 1500.000 2625.000 430.421
v 1500.000 3000.000 600.781
v 1875.000 -3000.000 667.030
v 1875.000 -2625.000 503.466
v 1875.000 -2250.000 387.359
v 1875.000 -1875.000 300.886
v 1875.000 -1500.000 225.968
v 1875.000 -1125.000 153.384
v 1875.000 -750.000 86.475
v 1875.000 -375.000 37.539
v 1875.000 0.000 19.438
v 1875.000 375.000 37.539
v 1875.000 750.000 86.475
v 1875.000 1125.000 153.384
v 1875.000 1500.000 225.968
v 1875.000 1875.000 300.886
v 1875.000 2250.000 387.359
v 1875.000 2625.000 503.466
v 1875.000 3000.000 667.030
v 2250.000 -3000.000 783.631
v 2250.000 -2625.000 619.597
v 2250.000 -2250.000 509.225
v 2250.000 -1875.000 427.496
v 2250.000 -1500.000 349.450
v 2250.000 -1125.000 263.522
v 2250.000 -750.000 177.003
v 2250.000 -375.000 110.611
v 2250.000 0.000 85.538
v 2250.000 375.000 110.611
v 2250.000 750.000 177.003
v 2250.000 1125.000 263.522
v 2250.000 1500.000 349.450
v 2250.000 1875.000 427.496
v 2250.000 2250.000 509.225
v 2250.000 2625.000 619.597
v 2250.000 3000.000 783.631
v 2625.000 -3000.000 962.156
v 2625.000 -2625.000 787.466
v 2625.000 -2250.000 659.734
v 2625.000 -1875.000 560.464
v 2625.000 -1500.000 471.225
v 2625.000 -1125.000 383.415
v 2625.000 -750.000 302.282
v 2625.000 -375.000 242.974
v 2625.000 0.000 221.042
v 2625.000 375.000 242.974
v 2625.000 750.000 302.282
v 2625.000 1125.000 383.415
v 2625.000 1500.000 471.225
v 2625.000 1875.000 560.464
v 2625.000 2250.000 659.734
v 2625.000 2625.000 787.466
v 2625.000 3000.000 962.156
v 3000.000 -3000.000 1194.853
v 3000.000 -2625.000 1002.293
v 3000.000 -2250.000 840.629
v 3000.000 -1875.000 707.834
v 3000.000 -1500.000 601.726
v 3000.000 -1125.000 520.474
v 3000.000 -750.000 462.890
v 3000.000 -375.000 428.429
v 3000.000 0.000 416.945
v 3000.000 375.000 428.429
v 3000.000 750.000 462.890
v 3000.000 1125.000 520.474
v 3000.000 1500.000 601.726
v 3000.000 1875.000 707.834
v 3000.000 2250.000 840.629
v 3000.000 2625.000 1002.293
v 3000.000 3000.000 1194.853
v -3000.000 -3000.000 -800.000
v -3000.000 -2625.000 -800.000
v -3000.000 -2250.000 -800.000
v -3000.000 -1875.000 -800.000
v -3000.000 -1500.000 -800.000
v -3000.000 -1125.000 -800.000
v -3000.000 -750.000 -800.000
v -3000.000 -375.000 -800.000
v -3000.000 0.000 -800.000
v -3000.000 375.000 -800.000
v -3000.000 750.000 -800.000
v -3000.000 1125.000 -800.000
v -3000.000 1500.000 -800.000
v -3000.000 1875.000 -800.000
v -3000.000 2250.000 -800.000
v -3000.000 2625.000 -800.000
v -3000.000 3000.000 -800.000
v -2625.000 -3000.000 -800.000
v -2625.000 -2625.000 -800.000
v -2625.000 -2250.000 -800.000
v -2625.000 -1875.000 -800.000
v -2625.000 -1500.000 -800.000
v -2625.000 -1125.000 -800.000
v -2625.000 -750.000 -800.000
v -2625.000 -375.000 -800.000
v -2625.000 0.000 -800.000
v -2625.000 375.000 -800.000
v -2625.000 750.000 -800.000
v -2625.000 1125.000 -800.000
v -2625.000 1500.000 -800.000
v -2625.000 1875.000 -800.000
v -2625.000 2250.000 -800.000
v -2625.000 2625.000 -800.000
v -2625.000 3000.000 -800.000
v -2250.000 -3000.000 -800.000
v -2250.000 -2625.000 -800.000
v -2250.000 -2250.000 -800.000
v -2250.000 -1875.000 -800.000
v -2250.000 -1500.000 -800.000
v -2250.000 -1125.000 -800.000
v -2250.000 -750.000 -800.000
v -2250.000 -375.000 -800.000
v -2250.000 0.000 -800.000
v -2250.000 375.000 -800.000
v -2250.000 750.000 -800.000
v -2250.000 1125.000 -800.000
v -2250.000 1500.000 -800.000
v -2250.000 1875.000 -800.000
v -2250.000 2250.000 -800.000
v -2250.000 2625.000 -800.000
v -2250.000 3000.000 -800.000
v -1875.000 -3000.000 -800.000
v -1875.000 -2625.000 -800.000
v -1875.000 -2250.000 -800.000
v -1875.000 -1875.000 -800.000
v -1875.000 -1500.000 -800.000
v -1875.000 -1125.000 -800.000
v -1875.000 -750.000 -800.000
v -1875.000 -375.000 -800.000
v -1875.000 0.000 -800.000
v -1875.000 375.000 -800.000
v -1875.000 750.000 -800.000
v -1875.000 1125.000 -800.000
v -1875.000 1500.000 -800.000
v -1875.000 1875.000 -800.000
v -1875.000 2250.000 -800.000
v -1875.000 2625.000 -800.000
v -1875.000 3000.000 -800.000
v -1500.000 -3000.000 -800.000
v -1500.000 -2625.000 -800.000
v -1500.000 -2250.000 -800.000
v -1500.000 -1875.000 -800.000
v -1500.000 -1500.000 -800.000
v -1500.000 -1125.000 -800.000
v -1500.000 -750.000 -800.000
v -1500.000 -375.000 -800.000
v -1500.000 0.000 -800.000
v -1500.000 375.000 -800.000
v -1500.000 750.000 -800.000
v -1500.000 1125.000 -800.000
v -1500.000 1500.000 -800.000
v -1500.000 1875.000 -800.000
v -1500.000 2250.000 -800.000
v -1500.000 2625.000 -800.000
v -1500.000 3000.000 -800.000
v -1125.000 -3000.000 -800.000
v -1125.000 -2625.000 -800.000
v -1125.000 -2250.000 -800.000
v -1125.000 -1875.000 -800.000
v -1125.000 -1500.000 -800.000
v -1125.000 -1125.000 -800.000
v -1125.000 -750.000 -800.000
v -1125.000 -375.000 -800.000
v -1125.000 0.000 -800.000
v -1125.000 375.000 -800.000
v -1125.000 750.000 -800.000
v -1125.000 1125.000 -800.000
v -1125.000 1500.000 -800.000
v -1125.000 1875.000 -800.000
v -1125.000 2250.000 -800.000
v -1125.000 2625.000 -800.000
v -1125.000 3000.000 -800.000
v -750.000 -3000.000 -800.000
v -750.000 -2625.000 -800.000
v -750.000 -2250.000 -800.000
v -750.000 -1875.000 -800.000
v -750.000 -1500.000 -800.000
v -750.000 -1125.000 -800.000
v -750.000 -750.000 -800.000
v -750.000 -375.000 -800.000
v -750.000 0.000 -800.000
v -750.000 375.000 -800.000
v -750.000 750.000 -800.000
v -750.000 1125.000 -800.000
v -750.000 1500.000 -800.000
v -750.000 1875.000 -800.000
v -750.000 2250.000 -800.000
v -750.000 2625.000 -800.000
v -750.000 3000.000 -800.000
v -375.000 -3000.000 -800.000
v -375.000 -2625.000 -800.000
v -375.000 -2250.000 -800.000
v -375.000 -1875.000 -800.000
v -375.000 -1500.000 -800.000
v -375.000 -1125.000 -800.000
v -375.000 -750.000 -800.000
v -375.000 -375.000 -800.000
v -375.000 0.000 -800.000
v -375.000 375.000 -800.000
v -375.000 750.000 -800.000
v -375.000 1125.000 -800.000
v -375.000 1500.000 -800.000
v -375.000 1875.000 -800.000
v -375.000 2250.000 -800.000
v -375.000 2625.000 -800.000
v -375.000 3000.000 -800.000
v 0.000 -3000.000 -800.000
v 0.000 -2625.000 -800.000
v 0.000 -2250.000 -800.000
v 0.000 -1875.000 -800.000
v 0.000 -1500.000 -800.000
v 0.000 -1125.000 -800.000
v 0.000 -750.000 -800.000
v 0.000 -375.000 -800.000
v 0.000 0.000 -800.000
v 0.000 375.000 -800.000
v 0.000 750.000 -800.000
v 0.000 1125.000 -800.000
v 0.000 1500.000 -800.000
v 0.000 1875.000 -800.000
v 0.000 2250.000 -800.000
v 0.000 2625.000 -800.000
v 0.000 3000.000 -800.000
v 375.000 -3000.000 -800.000
v 375.000 -2625.000 -800.000
v 375.000 -2250.000 -800.000
v 375.000 -1875.000 -800.000
v 375.000 -1500.000 -800.000
v 375.000 -1125.000 -800.000
v 375.000 -750.000 -800.000
v 375.000 -375.000 -800.000
v 375.000 0.000 -800.000
v 375.000 375.000 -800.000
v 375.000 750.000 -800.000
v 375.000 1125.000 -800.000
v 375.000 1500.000 -800.000
v 375.000 1875.000 -800.000
v 375.000 2250.000 -800.000
v 375.000 2625.000 -800.000
v 375.000 3000.000 -800.000
v 750.000 -3000.000 -800.000
v 750.000 -2625.000 -800.000
v 750.000 -2250.000 -800.000
v 750.000 -1875.000 -800.000
v 750.000 -1500.000 -800.000
v 750.000 -1125.000 -800.000
v 750.000 -750.000 -800.000
v 750.000 -375.000 -800.000
v 750.000 0.000 -800.000
v 750.000 375.000 -800.000
v 750.000 750.000 -800.000
v 750.000 1125.000 -800.000
v 750.000 1500.000 -800.000
v 750.000 1875.000 -800.000
v 750.000 2250.000 -800.000
v 750.000 2625.000 -800.000
v 750.000 3000.000 -800.000
v 1125.000 -3000.000 -800.000
v 1125.000 -2625.000 -800.000
v 1125.000 -2250.000 -800.000
v 1125.000 -1875.000 -800.000
v 1125.000 -1500.000 -800.000
v 1125.000 -1125.000 -800.000
v 1125.000 -750.000 -800.000
v 1125.000 -375.000 -800.000
v 1125.000 0.000 -800.000
v 1125.000 375.000 -800.000
v 1125.000 750.000 -800.000
v 1125.000 1125.000 -800.000
v 1125.000 1500.000 -800.000
v 1125.000 1875.000 -800.000
v 1125.000 2250.000 -800.000
v 1125.000 2625.000 -800.000
v 1125.000 3000.000 -800.000
v 1500.000 -3000.000 -800.000
v 1500.000 -2625.000 -800.000
v 1500.000 -2250.000 -800.000
v 1500.000 -1875.000 -800.000
v 1500.000 -1500.000 -800.000
v 1500.000 -1125.000 -800.000
v 1500.000 -750.000 -800.000
v 1500.000 -375.000 -800.000
v 1500.000 0.000 -800.000
v 1500.000 375.000 -800.000
v 1500.000 750.000 -800.000
v 1500.000 1125.000 -800.000
v 1500.000 1500.000 -800.000
v 1500.000 1875.000 -800.000
v 1500.000 2250.000 -800.000
v 1500.000 2625.000 -800.000
v 1500.000 3000.000 -800.000
v 1875.000 -3000.000 -800.000
v 1875.000 -2625.000 -800.000
v 1875.000 -2250.000 -800.000
v 1875.000 -1875.000 -800.000
v 1875.000 -1500.000 -800.000
v 1875.000 -1125.000 -800.000
v 1875.000 -750.000 -800.000
v 1875.000 -375.000 -800.000
v 1875.000 0.000 -800.000
v 1875.000 375.000 -800.000
v 1875.000 750.000 -800.000
v 1875.000 1125.000 -800.000
v 1875.000 1500.000 -800.000
v 1875.000 1875.000 -800.000
v 1875.000 2250.000 -800.000
v 1875.000 2625.000 -800.000
v 1875.000 3000.000 -800.000
v 2250.000 -3000.000 -800.000
v 2250.000 -2625.000 -800.000
v 2250.000 -2250.000 -800.000
v 2250.000 -1875.000 -800.000
v 2250.000 -1500.000 -800.000
v 2250.000 -1125.000 -800.000
v 2250.000 -750.000 -800.000
v 2250.000 -375.000 -800.000
v 2250.000 0.000 -800.000
v 2250.000 375.000 -800.000
v 2250.000 750.000 -800.000
v 2250.000 1125.000 -800.000
v 2250.000 1500.000 -800.000
v 2250.000 1875.000 -800.000
v 2250.000 2250.000 -800.000
v 2250.000 2625.000 -800.000
v 2250.000 3000.000 -800.000
v 2625.000 -3000.000 -800.000
v 2625.000 -2625.000 -800.000
v 2625.000 -2250.000 -800.000
v 2625.000 -1875.000 -800.000
v 2625.000 -1500.000 -800.000
v 2625.000 -1125.000 -800.000
v 2625.000 -750.000 -800.000
v 2625.000 -375.000 -800.000
v 2625.000 0.000 -800.000
v 2625.000 375.000 -800.000
v 2625.000 750.000 -800.000
v 2625.000 1125.000 -800.000
v 2625.000 1500.000 -800.000
v 2625.000 1875.000 -800.000
v 2625.000 2250.000 -800.000
v 2625.000 2625.000 -800.000
v 2625.000 3000.000 -800.000
v 3000.000 -3000.000 -800.000
v 3000.000 -2625.000 -800.000
v 3000.000 -2250.000 -800.000
v 3000.000 -1875.000 -800.000
v 3000.000 -1500.000 -800.000
v 3000.000 -1125.000 -800.000
v 3000.000 -750.000 -800.000
v 3000.000 -375.000 -800.000
v 3000.000 0.000 -800.000
v 3000.000 375.000 -800.000
v 3000.000 750.000 -800.000
v 3000.000 1125.000 -800.000
v 3000.000 1500.000 -800.000
v 3000.000 1875.000 -800.000
v 3000.000 2250.000 -800.000
v 3000.000 2625.000 -800.000
v 3000.000 3000.000 -800.000
vt 0.00000 0.00000
vt 0.00000 0.06250
vt 0.00000 0.12500
vt 0.00000 0.18750
vt 0.00000 0.25000
vt 0.00000 0.31250
vt 0.00000 0.37500
vt 0.00000 0.43750
vt 0.00000 0.50000
vt 0.00000 0.56250
vt 0.00000 0.62500
vt 0.00000 0.68750
vt 0.00000 0.75000
vt 0.00000 0.81250
vt 0.00000 0.87500
vt 0.00000 0.93750
vt 0.00000 1.00000
vt 0.06250 0.00000
vt 0.06250 0.06250
vt 0.06250 0.12500
vt 0.06250 0.18750
vt 0.06250 0.25000
vt 0.06250 0.31250
vt 0.06250 0.37500
vt 0.06250 0.43750
vt 0.06250 0.50000
vt 0.06250 0.56250
vt 0.06250 0.62500
vt 0.06250 0.68750
vt 0.06250 0.75000
vt 0.06250 0.81250
vt 0.06250 0.87500
vt 0.06250 0.93750
vt 0.06250 1.00000
vt 0.12500 0.00000
vt 0.12500 0.06250
vt 0.12500 0.12500
vt 0.12500 0.18750
vt 0.12500 0.25000
vt 0.12500 0.31250
vt 0.12500 0.37500
vt 0.12500 0.43750
vt 0.12500 0.50000
vt 0.12500 0.56250
vt 0.12500 0.62500
vt 0.12500 0.68750
vt 0.12500 0.75000
vt 0.12500 0.81250
vt 0.12500 0.87500
vt 0.12500 0.93750
vt 0.12500 1.00000
vt 0.18750 0.00000
vt 0.18750 0.06250
vt 0.18750 0.12500
vt 0.18750 0.18750
vt 0.18750 0.25000
vt 0.18750 0.31250
vt 0.18750 0.37500
vt 0.18750 0.43750
vt 0.18750 0.50000
vt 0.18750 0.56250
vt 0.18750 0.62500
vt 0.18750 0.68750
vt 0.18750 0.75000
vt 0.18750 0.81250
vt 0.18750 0.87500
vt 0.18750 0.93750
vt 0.18750 1.00000
vt 0.25000 0.00000
vt 0.25000 0.06250
vt 0.25000 0.12500
vt 0.25000 0.18750
vt 0.25000 0.25000
vt 0.25000 0.31250
vt 0.25000 0.37500
vt 0.25000 0.43750
vt 0.25000 0.50000
vt 0.25000 0.56250
vt 0.25000 0.62500
vt 0.25000 0.68750
vt 0.25000 0.75000
vt 0.25000 0.81250
vt 0.25000 0.87500
vt 0.25000 0.93750
vt 0.25000 1.00000
vt 0.31250 0.00000
vt 0.31250 0.06250
vt 0.31250 0.12500
vt 0.31250 0.18750
vt 0.31250 0.25000
vt 0.31250 0.31250
vt 0.31250 0.37500
vt 0.31250 0.43750
vt 0.31250 0.50000
vt 0.31250 0.56250
vt 0.31250 0.62500
vt 0.31250 0.68750
vt 0.31250 0.75000
vt 0.31250 0.81250
vt 0.31250 0.87500
vt 0.31250 0.93750
vt 0.31250 1.00000
vt 0.37500 0.00000
vt 0.37500 0.06250
vt 0.37500 0.12500
vt 0.37500 0.18750
vt 0.37500 0.25000
vt 0.37500 0.31250
vt 0.37500 0.37500
vt 0.37500 0.43750
vt 0.37500 0.50000
vt 0.37500 0.56250
vt 0.37500 0.62500
vt 0.37500 0.68750
vt 0.37500 0.75000
vt 0.37500 0.81250
vt 0.37500 0.87500
vt 0.37500 0.93750
vt 0.37500 1.00000
vt 0.43750 0.00000
vt 0.43750 0.06250
vt 0.43750 0.12500
vt 0.43750 0.18750
vt 0.43750 0.25000
vt 0.43750 0.31250
vt 0.43750 0.37500
vt 0.43750 0.43750
vt 0.43750 0.50000
vt 0.43750 0.56250
vt 0.43750 0.62500
vt 0.43750 0.68750
vt 0.43750 0.75000
vt 0.43750 0.81250
vt 0.43750 0.87500
vt 0.43750 0.93750
vt 0.43750 1.00000
vt 0.50000 0.00000
vt 0.50000 0.06250
vt 0.50000 0.12500
vt 0.50000 0.18750
vt 0.50000 0.25000
vt 0.50000 0.31250
vt 0.50000 0.37500
vt 0.50000 0.43750
vt 0.50000 0.50000
vt 0.50000 0.56250
vt 0.50000 0.62500
vt 0.50000 0.68750
vt 0.50000 0.75000
vt 0.50000 0.81250
vt 0.50000 0.87500
vt 0.50000 0.93750
vt 0.50000 1.00000
vt 0.56250 0.00000
vt 0.56250 0.06250
vt 0.56250 0.12500
vt 0.56250 0.18750
vt 0.56250 0.25000
vt 0.56250 0.31250
vt 0.56250 0.37500
vt 0.56250 0.43750
vt 0.56250 0.50000
vt 0.56250 0.56250
vt 0.56250 0.62500
vt 0.56250 0.68750
vt 0.56250 0.75000
vt 0.56250 0.81250
vt 0.56250 0.87500
vt 0.56250 0.93750
vt 0.56250 1.00000
vt 0.62500 0.00000
vt 0.62500 0.06250
vt 0.62500 0.12500
vt 0.62500 0.18750
vt 0.62500 0.25000
vt 0.62500 0.31250
vt 0.62500 0.37500
vt 0.62500 0.43750
vt 0.62500 0.50000
vt 0.62500 0.56250
vt 0.62500 0.62500
vt 0.62500 0.68750
vt 0.62500 0.75000
vt 0.62500 0.81250
vt 0.62500 0.87500
vt 0.62500 0.93750
vt 0.62500 1.00000
vt 0.68750 0.00000
vt 0.68750 0.06250
vt 0.68750 0.12500
vt 0.68750 0.18750
vt 0.68750 0.25000
vt 0.68750 0.31250
vt 0.68750 0.37500
vt 0.68750 0.43750
vt 0.68750 0.50000
vt 0.68750 0.56250
vt 0.68750 0.62500
vt 0.68750 0.68750
vt 0.68750 0.75000
vt 0.68750 0.81250
vt 0.68750 0.87500
vt 0.68750 0.93750
vt 0.68750 1.00000
vt 0.75000 0.00000
vt 0.75000 0.06250
vt 0.75000 0.12500
vt 0.75000 0.18750
vt 0.75000 0.25000
vt 0.75000 0.31250
vt 0.75000 0.37500
vt 0.75000 0.43750
vt 0.75000 0.50000
vt 0.75000 0.56250
vt 0.75000 0.62500
vt 0.75000 0.68750
vt 0.75000 0.75000
vt 0.75000 0.81250
vt 0.75000 0.87500
vt 0.75000 0.93750
vt 0.75000 1.00000
vt 0.81250 0.00000
vt 0.81250 0.06250
vt 0.81250 0.12500
vt 0.81250 0.18750
vt 0.81250 0.25000
vt 0.81250 0.31250
vt 0.81250 0.37500
vt 0.81250 0.43750
vt 0.81250 0.50000
vt 0.81250 0.56250
vt 0.81250 0.62500
vt 0.81250 0.68750
vt 0.81250 0.75000
vt 0.81250 0.81250
vt 0.81250 0.87500
vt 0.81250 0.93750
vt 0.81250 1.00000
vt 0.87500 0.00000
vt 0.87500 0.06250
vt 0.87500 0.12500
vt 0.87500 0.18750
vt 0.87500 0.25000
vt 0.87500 0.31250
vt 0.87500 0.37500
vt 0.87500 0.43750
vt 0.87500 0.50000
vt 0.87500 0.56250
vt 0.87500 0.62500
vt 0.87500 0.68750
vt 0.87500 0.75000
vt 0.87500 0.81250
vt 0.87500 0.87500
vt 0.87500 0.93750
vt 0.87500 1.00000
vt 0.93750 0.00000
vt 0.93750 0.06250
vt 0.93750 0.12500
vt 0.93750 0.18750
vt 0.93750 0.25000
vt 0.93750 0.31250
vt 0.93750 0.37500
vt 0.93750 0.43750
vt 0.93750 0.50000
vt 0.93750 0.56250
vt 0.93750 0.62500
vt 0.93750 0.68750
vt 0.93750 0.75000
vt 0.93750 0.81250
vt 0.93750 0.87500
vt 0.93750 0.93750
vt 0.93750 1.00000
vt 1.00000 0.00000
vt 1.00000 0.06250
vt 1.00000 0.12500
vt 1.00000 0.18750
vt 1.00000 0.25000
vt 1.00000 0.31250
vt 1.00000 0.37500
vt 1.00000 0.43750
vt 1.00000 0.50000
vt 1.00000 0.56250
vt 1.00000 0.62500
vt 1.00000 0.68750
vt 1.00000 0.75000
vt 1.00000 0.81250
vt 1.00000 0.87500
vt 1.00000 0.93750
vt 1.00000 1.00000
vt 0.00000 0.00000
vt 0.00000 0.06250
vt 0.00000 0.12500
vt 0.00000 0.18750
vt 0.00000 0.25000
vt 0.00000 0.31250
vt 0.00000 0.37500
vt 0.00000 0.43750
vt 0.00000 0.50000
vt 0.00000 0.56250
vt 0.00000 0.62500
vt 0.00000 0.68750
vt 0.00000 0.75000
vt 0.00000 0.81250
vt 0.00000 0.87500
vt 0.00000 0.93750
vt 0.00000 1.00000
vt 0.06250 0.00000
vt 0.06250 0.06250
vt 0.06250 0.12500
vt 0.06250 0.18750
vt 0.06250 0.25000
vt 0.06250 0.31250
vt 0.06250 0.37500
vt 0.06250 0.43750
vt 0.06250 0.50000
vt 0.06250 0.56250
vt 0.06250 0.62500
vt 0.06250 0.68750
vt 0.06250 0.75000
vt 0.06250 0.81250
vt 0.06250 0.87500
vt 0.06250 0.93750
vt 0.06250 1.00000
vt 0.12500 0.00000
vt 0.12500 0.06250
vt 0.12500 0.12500
vt 0.12500 0.18750
vt 0.12500 0.25000
vt 0.12500 0.31250
vt 0.12500 0.37500
vt 0.12500 0.43750
vt 0.12500 0.50000
vt 0.12500 0.56250
vt 0.12500 0.62500
vt 0.12500 0.68750
vt 0.12500 0.75000
vt 0.12500 0.81250
vt 0.12500 0.87500
vt 0.12500 0.93750
vt 0.12500 1.00000
vt 0.18750 0.00000
vt 0.18750 0.06250
vt 0.18750 0.12500
vt 0.18750 0.18750
vt 0.18750 0.25000
vt 0.18750 0.31250
vt 0.18750 0.37500
vt 0.18750 0.43750
vt 0.18750 0.50000
vt 0.18750 0.56250
vt 0.18750 0.62500
vt 0.18750 0.68750
vt 0.18750 0.75000
vt 0.18750 0.81250
vt 0.18750 0.87500
vt 0.18750 0.93750
vt 0.18750 1.00000
vt 0.25000 0.00000
vt 0.25000 0.06250
vt 0.25000 0.12500
vt 0.25000 0.18750
vt 0.25000 0.25000
vt 0.25000 0.31250
vt 0.25000 0.37500
vt 0.25000 0.43750
vt 0.25000 0.50000
vt 0.25000 0.56250
vt 0.25000 0.62500
vt 0.25000 0.68750
vt 0.25000 0.75000
vt 0.25000 0.81250
vt 0.25000 0.87500
vt 0.25000 0.93750
vt 0.25000 1.00000
vt 0.31250 0.00000
vt 0.31250 0.06250
vt 0.31250 0.12500
vt 0.31250 0.18750
vt 0.31250 0.25000
vt 0.31250 0.31250
vt 0.31250 0.37500
vt 0.31250 0.43750
vt 0.31250 0.50000
vt 0.31250 0.56250
vt 0.31250 0.62500
vt 0.31250 0.68750
vt 0.31250 0.75000
vt 0.31250 0.81250
vt 0.31250 0.87500
vt 0.31250 0.93750
vt 0.31250 1.00000
vt 0.37500 0.00000
vt 0.37500 0.06250
vt 0.37500 0.12500
vt 0.37500 0.18750
vt 0.37500 0.25000
vt 0.37500 0.31250
vt 0.37500 0.37500
vt 0.37500 0.43750
vt 0.37500 0.50000
vt 0.37500 0.56250
vt 0.37500 0.62500
vt 0.37500 0.68750
vt 0.37500 0.75000
vt 0.37500 0.81250
vt 0.37500 0.87500
vt 0.37500 0.93750
vt 0.37500 1.00000
vt 0.43750 0.00000
vt 0.43750 0.06250
vt 0.43750 0.12500
vt 0.43750 0.18750
vt 0.43750 0.25000
vt 0.43750 0.31250
vt 0.43750 0.37500
vt 0.43750 0.43750
vt 0.43750 0.50000
vt 0.43750 0.56250
vt 0.43750 0.62500
vt 0.43750 0.68750
vt 0.43750 0.75000
vt 0.43750 0.81250
vt 0.43750 0.87500
vt 0.43750 0.93750
vt 0.43750 1.00000
vt 0.50000 0.00000
vt 0.50000 0.06250
vt 0.50000 0.12500
vt 0.50000 0.18750
vt 0.50000 0.25000
vt 0.50000 0.31250
vt 0.50000 0.37500
vt 0.50000 0.43750
vt 0.50000 0.50000
vt 0.50000 0.56250
vt 0.50000 0.62500
vt 0.50000 0.68750
vt 0.50000 0.75000
vt 0.50000 0.81250
vt 0.50000 0.87500
vt 0.50000 0.93750
vt 0.50000 1.00000
vt 0.56250 0.00000
vt 0.56250 0.06250
vt 0.56250 0.12500
vt 0.56250 0.18750
vt 0.56250 0.25000
vt 0.56250 0.31250
vt 0.56250 0.37500
vt 0.56250 0.43750
vt 0.56250 0.50000
vt 0.56250 0.56250
vt 0.56250 0.62500
vt 0.56250 0.68750
vt 0.56250 0.75000
vt 0.56250 0.81250
vt 0.56250 0.87500
vt 0.56250 0.93750
vt 0.56250 1.00000
vt 0.62500 0.00000
vt 0.62500 0.06250
vt 0.62500 0.12500
vt 0.62500 0.18750
vt 0.62500 0.25000
vt 0.62500 0.31250
vt 0.62500 0.37500
vt 0.62500 0.43750
vt 0.62500 0.50000
vt 0.62500 0.56250
vt 0.62500 0.62500
vt 0.62500 0.68750
vt 0.62500 0.75000
vt 0.62500 0.81250
vt 0.62500 0.87500
vt 0.62500 0.93750
vt 0.62500 1.00000
vt 0.68750 0.00000
vt 0.68750 0.06250
vt 0.68750 0.12500
vt 0.68750 0.18750
vt 0.68750 0.25000
vt 0.68750 0.31250
vt 0.68750 0.37500
vt 0.68750 0.43750
vt 0.68750 0.50000
vt 0.68750 0.56250
vt 0.68750 0.62500
vt 0.68750 0.68750
vt 0.68750 0.75000
vt 0.68750 0.81250
vt 0.68750 0.87500
vt 0.68750 0.93750
vt 0.68750 1.00000
vt 0.75000 0.00000
vt 0.75000 0.06250
vt 0.75000 0.12500
vt 0.75000 0.18750
vt 0.75000 0.25000
vt 0.75000 0.31250
vt 0.75000 0.37500
vt 0.75000 0.43750
vt 0.75000 0.50000
vt 0.75000 0.56250
vt 0.75000 0.62500
vt 0.75000 0.68750
vt 0.75000 0.75000
vt 0.75000 0.81250
vt 0.75000 0.87500
vt 0.75000 0.93750
vt 0.75000 1.00000
vt 0.81250 0.00000
vt 0.81250 0.06250
vt 0.81250 0.12500
vt 0.81250 0.18750
vt 0.81250 0.25000
vt 0.81250 0.31250
vt 0.81250 0.37500
vt 0.81250 0.43750
vt 0.81250 0.50000
vt 0.81250 0.56250
vt 0.81250 0.62500
vt 0.81250 0.68750
vt 0.81250 0.75000
vt 0.81250 0.81250
vt 0.81250 0.87500
vt 0.81250 0.93750
vt 0.81250 1.00000
vt 0.87500 0.00000
vt 0.87500 0.06250
vt 0.87500 0.12500
vt 0.87500 0.18750
vt 0.87500 0.25000
vt 0.87500 0.31250
vt 0.87500 0.37500
vt 0.87500 0.43750
vt 0.87500 0.50000
vt 0.87500 0.56250
vt 0.87500 0.62500
vt 0.87500 0.68750
vt 0.87500 0.75000
vt 0.87500 0.81250
vt 0.87500 0.87500
vt 0.87500 0.93750
vt 0.87500 1.00000
vt 0.93750 0.00000
vt 0.93750 0.06250
vt 0.93750 0.12500
vt 0.93750 0.18750
vt 0.93750 0.25000
vt 0.93750 0.31250
vt 0.93750 0.37500
vt 0.93750 0.43750
vt 0.93750 0.50000
vt 0.93750 0.56250
vt 0.93750 0.62500
vt 0.93750 0.68750
vt 0.93750 0.75000
vt 0.93750 0.81250
vt 0.93750 0.87500
vt 0.93750 0.93750
vt 0.93750 1.00000
vt 1.00000 0.00000
vt 1.00000 0.06250
vt 1.00000 0.12500
vt 1.00000 0.18750
vt 1.00000 0.25000
vt 1.00000 0.31250
vt 1.00000 0.37500
vt 1.00000 0.43750
vt 1.00000 0.50000
vt 1.00000 0.56250
vt 1.00000 0.62500
vt 1.00000 0.68750
vt 1.00000 0.75000
vt 1.00000 0.81250
vt 1.00000 0.87500
vt 1.00000 0.93750
vt 1.00000 1.00000
vn 0.3573 0.4541 0.8162
vn 0.3840 0.3977 0.8333
vn 0.4418 0.3328 0.8331
vn 0.4946 0.2672 0.8270
vn 0.5134 0.2074 0.8327
vn 0.4879 0.1539 0.8592
vn 0.4258 0.1031 0.8989
vn 0.3577 0.0519 0.9324
vn 0.3277 -0.0000 0.9448
vn 0.3577 -0.0519 0.9324
vn 0.4258 -0.1031 0.8989
vn 0.4879 -0.1539 0.8592
vn 0.5134 -0.2074 0.8327
vn 0.4946 -0.2672 0.8270
vn 0.4418 -0.3328 0.8331
vn 0.3840 -0.3977 0.8333
vn 0.3573 -0.4541 0.8162
vn 0.3263 0.4524 0.8300
vn 0.3368 0.4357 0.8347
vn 0.3742 0.3917 0.8406
vn 0.4146 0.3114 0.8551
vn 0.4312 0.2043 0.8788
vn 0.4087 0.0971 0.9075
vn 0.3549 0.0210 0.9347
vn 0.2994 -0.0073 0.9541
vn 0.2759 -0.0000 0.9612
vn 0.2994 0.0073 0.9541
vn 0.3549 -0.0210 0.9347
vn 0.4087 -0.0971 0.9075
vn 0.4312 -0.2043 0.8788
vn 0.4146 -0.3114 0.8551
vn 0.3742 -0.3917 0.8406
vn 0.3368 -0.4357 0.8347
vn 0.3263 -0.4524 0.8300
vn 0.3320 0.4426 0.8330
vn 0.3198 0.4433 0.8374
vn 0.3104 0.4119 0.8567
vn 0.3050 0.3291 0.8937
vn 0.2992 0.1995 0.9331
vn 0.2887 0.0643 0.9553
vn 0.2762 -0.0218 0.9609
vn 0.2675 -0.0361 0.9629
vn 0.2646 -0.0000 0.9643
vn 0.2675 0.0361 0.9629
vn 0.2762 0.0218 0.9609
vn 0.2887 -0.0643 0.9553
vn 0.2992 -0.1995 0.9331
vn 0.3050 -0.3291 0.8937
vn 0.3104 -0.4119 0.8567
vn 0.3198 -0.4433 0.8374
vn 0.3320 -0.4426 0.8330
vn 0.3394 0.4309 0.8362
vn 0.3105 0.4154 0.8550
vn 0.2529 0.3788 0.8903
vn 0.1903 0.3011 0.9344
vn 0.1524 0.1870 0.9705
vn 0.1566 0.0714 0.9851
vn 0.1937 -0.0033 0.9811
vn 0.2345 -0.0210 0.9719
vn 0.2517 -0.0000 0.9678
vn 0.2345 0.0210 0.9719
vn 0.1937 0.0033 0.9811
vn 0.1566 -0.0714 0.9851
vn 0.1524 -0.1870 0.9705
vn 0.1903 -0.3011 0.9344
vn 0.2529 -0.3788 0.8903
vn 0.3105 -0.4154 0.8550
vn 0.3394 -0.4309 0.8362
vn 0.3125 0.4235 0.8503
vn 0.2802 0.3625 0.8888
vn 0.1985 0.3001 0.9330
vn 0.1049 0.2331 0.9668
vn 0.0492 0.1660 0.9849
vn 0.0565 0.1054 0.9928
vn 0.1105 0.0567 0.9923
vn 0.1685 0.0228 0.9854
vn 0.1924 -0.0000 0.9813
vn 0.1685 -0.0228 0.9854
vn 0.1105 -0.0567 0.9923
vn 0.0565 -0.1054 0.9928
vn 0.0492 -0.1660 0.9849
vn 0.1049 -0.2331 0.9668
vn 0.1985 -0.3001 0.9330
vn 0.2802 -0.3625 0.8888
vn 0.3125 -0.4235 0.8503
vn 0.2319 0.4226 0.8762
vn 0.2093 0.3079 0.9281
vn 0.1450 0.2120 0.9664
vn 0.0705 0.1576 0.9850
vn 0.0218 0.1396 0.9900
vn 0.0136 0.1311 0.9913
vn 0.0332 0.1061 0.9938
vn 0.0600 0.0595 0.9964
vn 0.0825 -0.0000 0.9966
vn 0.0600 -0.0595 0.9964
vn 0.0332 -0.1061 0.9938
vn 0.0136 -0.1311 0.9913
vn 0.0218 -0.1396 0.9900
vn 0.0705 -0.1576 0.9850
vn 0.1450 -0.2120 0.9664
vn 0.2093 -0.3079 0.9281
vn 0.2319 -0.4226 0.8762
vn 0.1059 0.4235 0.8997
vn 0.1031 0.2807 0.9542
vn 0.0941 0.1658 0.9817
vn 0.0787 0.1136 0.9904
vn 0.0558 0.1114 0.9922
vn 0.0224 0.1168 0.9929
vn -0.0000 0.1177 0.9930
vn -0.0007 0.0832 0.9965
vn -0.0010 -0.0000 1.0000
vn -0.0007 -0.0832 0.9965
vn -0.0000 -0.1177 0.9930
vn 0.0224 -0.1168 0.9929
vn 0.0558 -0.1114 0.9922
vn 0.0787 -0.1136 0.9904
vn 0.0941 -0.1658 0.9817
vn 0.1031 -0.2807 0.9542
vn 0.1059 -0.4235 0.8997
vn -0.0232 0.4215 0.9065
vn -0.0045 0.2968 0.9549
vn 0.0471 0.1886 0.9809
vn 0.0957 0.1213 0.9880
vn 0.1049 0.0874 0.9906
vn 0.0586 0.0610 0.9964
vn -0.0007 0.0832 0.9965
vn -0.0000 -0.0000 1.0000
vn -0.0000 -0.0000 1.0000
vn -0.0000 -0.0000 1.0000
vn -0.0007 -0.0832 0.9965
vn 0.0586 -0.0610 0.9964
vn 0.1049 -0.0874 0.9906
vn 0.0957 -0.1213 0.9880
vn 0.0471 -0.1886 0.9809
vn -0.0045 -0.2968 0.9549
vn -0.0232 -0.4215 0.9065
vn -0.1068 0.4195 0.9014
vn -0.0761 0.3447 0.9356
vn 0.0028 0.2620 0.9651
vn 0.0840 0.1713 0.9816
vn 0.1173 0.0768 0.9901
vn 0.0825 -0.0000 0.9966
vn -0.0010 -0.0000 1.0000
vn -0.0000 -0.0000 1.0000
vn -0.0000 -0.0000 1.0000
vn -0.0000 -0.0000 1.0000
vn -0.0010 -0.0000 1.0000
vn 0.0825 -0.0000 0.9966
vn 0.1173 -0.0768 0.9901
vn 0.0840 -0.1713 0.9816
vn 0.0028 -0.2620 0.9651
vn -0.0761 -0.3447 0.9356
vn -0.1068 -0.4195 0.9014
vn -0.1280 0.4223 0.8974
vn -0.1012 0.3947 0.9132
vn -0.0412 0.3377 0.9403
vn 0.0239 0.2318 0.9725
vn 0.0621 0.0850 0.9944
vn 0.0586 -0.0581 0.9966
vn -0.0007 -0.0832 0.9965
vn -0.0000 -0.0000 1.0000
vn -0.0000 -0.0000 1.0000
vn -0.0000 -0.0000 1.0000
vn -0.0007 0.0832 0.9965
vn 0.0586 0.0581 0.9966
vn 0.0621 -0.0850 0.9944
vn 0.0239 -0.2318 0.9725
vn -0.0412 -0.3377 0.9403
vn -0.1012 -0.3947 0.9132
vn -0.1280 -0.4223 0.8974
vn -0.1073 0.4292 0.8968
vn -0.0986 0.4208 0.9018
vn -0.0884 0.3746 0.9230
vn -0.0749 0.2678 0.9606
vn -0.0538 0.1076 0.9927
vn -0.0212 -0.0520 0.9984
vn -0.0000 -0.1177 0.9930
vn -0.0007 -0.0832 0.9965
vn -0.0010 -0.0000 1.0000
vn -0.0007 0.0832 0.9965
vn -0.0000 0.1177 0.9930
vn -0.0212 0.0520 0.9984
vn -0.0538 -0.1076 0.9927
vn -0.0749 -0.2678 0.9606
vn -0.0884 -0.3746 0.9230
vn -0.0986 -0.4208 0.9018
vn -0.1073 -0.4292 0.8968
vn -0.0888 0.4368 0.8952
vn -0.1013 0.4122 0.9055
vn -0.1422 0.3589 0.9225
vn -0.1810 0.2630 0.9477
vn -0.1826 0.1346 0.9739
vn -0.1283 0.0107 0.9917
vn -0.0320 -0.0628 0.9975
vn 0.0571 -0.0595 0.9966
vn 0.0825 -0.0000 0.9966
vn 0.0571 0.0595 0.9966
vn -0.0320 0.0628 0.9975
vn -0.1283 -0.0107 0.9917
vn -0.1826 -0.1346 0.9739
vn -0.1810 -0.2630 0.9477
vn -0.1422 -0.3589 0.9225
vn -0.1013 -0.4122 0.9055
vn -0.0888 -0.4368 0.8952
vn -0.1161 0.4429 0.8890
vn -0.1397 0.3762 0.9159
vn -0.2036 0.3031 0.9310
vn -0.2621 0.2287 0.9376
vn -0.2723 0.1598 0.9489
vn -0.2160 0.1004 0.9712
vn -0.1086 0.0529 0.9927
vn -0.0027 0.0204 0.9998
vn 0.0409 -0.0000 0.9992
vn -0.0027 -0.0204 0.9998
vn -0.1086 -0.0529 0.9927
vn -0.2160 -0.1004 0.9712
vn -0.2723 -0.1598 0.9489
vn -0.2621 -0.2287 0.9376
vn -0.2036 -0.3031 0.9310
vn -0.1397 -0.3762 0.9159
vn -0.1161 -0.4429 0.8890
vn -0.2048 0.4446 0.8720
vn -0.2248 0.3353 0.9149
vn -0.2687 0.2436 0.9319
vn -0.3050 0.1945 0.9323
vn -0.3065 0.1825 0.9342
vn -0.2639 0.1801 0.9476
vn -0.1900 0.1558 0.9693
vn -0.1184 0.0928 0.9886
vn -0.0886 -0.0000 0.9961
vn -0.1184 -0.0928 0.9886
vn -0.1900 -0.1558 0.9693
vn -0.2639 -0.1801 0.9476
vn -0.3065 -0.1825 0.9342
vn -0.3050 -0.1945 0.9323
vn -0.2687 -0.2436 0.9319
vn -0.2248 -0.3353 0.9149
vn -0.2048 -0.4446 0.8720
vn -0.3285 0.4380 0.8368
vn -0.3352 0.3167 0.8873
vn -0.3321 0.2235 0.9164
vn -0.3207 0.1894 0.9281
vn -0.3040 0.2027 0.9309
vn -0.2856 0.2210 0.9325
vn -0.2705 0.2017 0.9413
vn -0.2619 0.1239 0.9571
vn -0.2593 -0.0000 0.9658
vn -0.2619 -0.1239 0.9571
vn -0.2705 -0.2017 0.9413
vn -0.2856 -0.2210 0.9325
vn -0.3040 -0.2027 0.9309
vn -0.3207 -0.1894 0.9281
vn -0.3321 -0.2235 0.9164
vn -0.3352 -0.3167 0.8873
vn -0.3285 -0.4380 0.8368
vn -0.4394 0.4264 0.7907
vn -0.4319 0.3325 0.8384
vn -0.3898 0.2595 0.8836
vn -0.3362 0.2239 0.9148
vn -0.3041 0.2182 0.9273
vn -0.3118 0.2133 0.9259
vn -0.3503 0.1792 0.9193
vn -0.3923 0.1040 0.9139
vn -0.4102 -0.0000 0.9120
vn -0.3923 -0.1040 0.9139
vn -0.3503 -0.1792 0.9193
vn -0.3118 -0.2133 0.9259
vn -0.3041 -0.2182 0.9273
vn -0.3362 -0.2239 0.9148
vn -0.3898 -0.2595 0.8836
vn -0.4319 -0.3325 0.8384
vn -0.4394 -0.4264 0.7907
vn -0.5079 0.4187 0.7528
vn -0.4912 0.3715 0.7879
vn -0.4388 0.3277 0.8367
vn -0.3770 0.2804 0.8828
vn -0.3457 0.2268 0.9105
vn -0.3680 0.1689 0.9144
vn -0.4269 0.1100 0.8976
vn -0.4825 0.0535 0.8743
vn -0.5042 -0.0000 0.8636
vn -0.4825 -0.0535 0.8743
vn -0.4269 -0.1100 0.8976
vn -0.3680 -0.1689 0.9144
vn -0.3457 -0.2268 0.9105
vn -0.3770 -0.2804 0.8828
vn -0.4388 -0.3277 0.8367
vn -0.4912 -0.3715 0.7879
vn -0.5079 -0.4187 0.7528
vn 0.0000 0.0000 -1.0000
vn 0.0000 0.0000 -1.0000
vn 0.0000 0.0000 -1.0000
vn 0.0000 0.0000 -1.0000
vn 0.0000 0.0000 -1.0000
vn 0.0000 0.0000 -1.0000
vn 0.0000 0.0000 -1.0000
vn 0.0000 0.0000 -1.0000
vn 0.0000 0.0000 -1.0000
vn 0.0000 0.0000 -1.0000
vn 0.0000 0.0000 -1.0000
vn 0.0000 0.0000 -1.0000
vn 0.0000 0.0000 -1.0000
vn 0.0000 0.0000 -1.0000
vn 0.0000 0.0000 -1.0000
vn 0.0000 0.0000 -1.0000
vn 0.0000 0.0000 -1.0000
vn 0.0000 0.0000 -1.0000
vn 0.0000 0.0000 -1.0000
vn 0.0000 0.0000 -1.0000
vn 0.0000 0.0000 -1.0000
vn 0.0000 0.0000 -1.0000
vn 0.0000 0.0000 -1.0000
vn 0.0000 0.0000 -1.0000
vn 0.0000 0.0000 -1.0000
vn 0.0000 0.0000 -1.0000
vn 0.0000 0.0000 -1.0000
vn 0.0000 0.0000 -1.0000
vn 0.0000 0.0000 -1.0000
vn 0.0000 0.0000 -1.0000
vn 0.0000 0.0000 -1.0000
vn 0.0000 0.0000 -1.0000
vn 0.0000 0.0000 -1.0000
vn 0.0000 0.0000 -1.0000
vn 0.0000 0.0000 -1.0000
vn 0.0000 0.0000 -1.0000
vn 0.0000 0.0000 -1.0000
vn 0.0000 0.0000 -1.0000
vn 0.0000 0.0000 -1.0000
vn 0.0000 0.0000 -1.0000
vn 0.0000 0.0000 -1.0000
vn 0.0000 0.0000 -1.0000
vn 0.0000 0.0000 -1.0000
vn 0.0000 0.0000 -1.0000
vn 0.0000 0.0000 -1.0000
vn 0.0000 0.0000 -1.0000
vn 0.0000 0.0000 -1.0000
vn 0.0000 0.0000 -1.0000
vn 0.0000 0.0000 -1.0000
vn 0.0000 0.0000 -1.0000
vn 0.0000 0.0000 -1.0000
vn 0.0000 0.0000 -1.0000
vn 0.0000 0.0000 -1.0000
vn 0.0000 0.0000 -1.0000
vn 0.0000 0.0000 -1.0000
vn 0.0000 0.0000 -1.0000
vn 0.0000 0.0000 -1.0000
vn 0.0000 0.0000 -1.0000
vn 0.0000 0.0000 -1.0000
vn 0.0000 0.0000 -1.0000
vn 0.0000 0.0000 -1.0000
vn 0.0000 0.0000 -1.0000
vn 0.0000 0.0000 -1.0000
vn 0.0000 0.0000 -1.0000
vn 0.0000 0.0000 -1.0000
vn 0.0000 0.0000 -1.0000
vn 0.0000 0.0000 -1.0000
vn 0.0000 0.0000 -1.0000
vn 0.0000 0.0000 -1.0000
vn 0.0000 0.0000 -1.0000
vn 0.0000 0.0000 -1.0000
vn 0.0000 0.0000 -1.0000
vn 0.0000 0.0000 -1.0000
vn 0.0000 0.0000 -1.0000
vn 0.0000 0.0000 -1.0000
vn 0.0000 0.0000 -1.0000
vn 0.0000 0.0000 -1.0000
vn 0.0000 0.0000 -1.0000
vn 0.0000 0.0000 -1.0000
vn 0.0000 0.0000 -1.0000
vn 0.0000 0.0000 -1.0000
vn 0.0000 0.0000 -1.0000
vn 0.0000 0.0000 -1.0000
vn 0.0000 0.0000 -1.0000
vn 0.0000 0.0000 -1.0000
vn 0.0000 0.0000 -1.0000
vn 0.0000 0.0000 -1.0000
vn 0.0000 0.0000 -1.0000
vn 0.0000 0.0000 -1.0000
vn 0.0000 0.0000 -1.0000
vn 0.0000 0.0000 -1.0000
vn 0.0000 0.0000 -1.0000
vn 0.0000 0.0000 -1.0000
vn 0.0000 0.0000 -1.0000
vn 0.0000 0.0000 -1.0000
vn 0.0000 0.0000 -1.0000
vn 0.0000 0.0000 -1.0000
vn 0.0000 0.0000 -1.0000
vn 0.0000 0.0000 -1.0000
vn 0.0000 0.0000 -1.0000
vn 0.0000 0.0000 -1.0000
vn 0.0000 0.0000 -1.0000
vn 0.0000 0.0000 -1.0000
vn 0.0000 0.0000 -1.0000
vn 0.0000 0.0000 -1.0000
vn 0.0000 0.0000 -1.0000
vn 0.0000 0.0000 -1.0000
vn 0.0000 0.0000 -1.0000
vn 0.0000 0.0000 -1.0000
vn 0.0000 0.0000 -1.0000
vn 0.0000 0.0000 -1.0000
vn 0.0000 0.0000 -1.0000
vn 0.0000 0.0000 -1.0000
vn 0.0000 0.0000 -1.0000
vn 0.0000 0.0000 -1.0000
vn 0.0000 0.0000 -1.0000
vn 0.0000 0.0000 -1.0000
vn 0.0000 0.0000 -1.0000
vn 0.0000 0.0000 -1.0000
vn 0.0000 0.0000 -1.0000
vn 0.0000 0.0000 -1.0000
vn 0.0000 0.0000 -1.0000
vn 0.0000 0.0000 -1.0000
vn 0.0000 0.0000 -1.0000
vn 0.0000 0.0000 -1.0000
vn 0.0000 0.0000 -1.0000
vn 0.0000 0.0000 -1.0000
vn 0.0000 0.0000 -1.0000
vn 0.0000 0.0000 -1.0000
vn 0.0000 0.0000 -1.0000
vn 0.0000 0.0000 -1.0000
vn 0.0000 0.0000 -1.0000
vn 0.0000 0.0000 -1.0000
vn 0.0000 0.0000 -1.0000
vn 0.0000 0.0000 -1.0000
vn 0.0000 0.0000 -1.0000
vn 0.0000 0.0000 -1.0000
vn 0.0000 0.0000 -1.0000
vn 0.0000 0.0000 -1.0000
vn 0.0000 0.0000 -1.0000
vn 0.0000 0.0000 -1.0000
vn 0.0000 0.0000 -1.0000
vn 0.0000 0.0000 -1.0000
vn 0.0000 0.0000 -1.0000
vn 0.0000 0.0000 -1.0000
vn 0.0000 0.0000 -1.0000
vn 0.0000 0.0000 -1.0000
vn 0.0000 0.0000 -1.0000
vn 0.0000 0.0000 -1.0000
vn 0.0000 0.0000 -1.0000
vn 0.0000 0.0000 -1.0000
vn 0.0000 0.0000 -1.0000
vn 0.0000 0.0000 -1.0000
vn 0.0000 0.0000 -1.0000
vn 0.0000 0.0000 -1.0000
vn 0.0000 0.0000 -1.0000
vn 0.0000 0.0000 -1.0000
vn 0.0000 0.0000 -1.0000
vn 0.0000 0.0000 -1.0000
vn 0.0000 0.0000 -1.0000
vn 0.0000 0.0000 -1.0000
vn 0.0000 0.0000 -1.0000
vn 0.0000 0.0000 -1.0000
vn 0.0000 0.0000 -1.0000
vn 0.0000 0.0000 -1.0000
vn 0.0000 0.0000 -1.0000
vn 0.0000 0.0000 -1.0000
vn 0.0000 0.0000 -1.0000
vn 0.0000 0.0000 -1.0000
vn 0.0000 0.0000 -1.0000
vn 0.0000 0.0000 -1.0000
vn 0.0000 0.0000 -1.0000
vn 0.0000 0.0000 -1.0000
vn 0.0000 0.0000 -1.0000
vn 0.0000 0.0000 -1.0000
vn 0.0000 0.0000 -1.0000
vn 0.0000 0.0000 -1.0000
vn 0.0000 0.0000 -1.0000
vn 0.0000 0.0000 -1.0000
vn 0.0000 0.0000 -1.0000
vn 0.0000 0.0000 -1.0000
vn 0.0000 0.0000 -1.0000
vn 0.0000 0.0000 -1.0000
vn 0.0000 0.0000 -1.0000
vn 0.0000 0.0000 -1.0000
vn 0.0000 0.0000 -1.0000
vn 0.0000 0.0000 -1.0000
vn 0.0000 0.0000 -1.0000
vn 0.0000 0.0000 -1.0000
vn 0.0000 0.0000 -1.0000
vn 0.0000 0.0000 -1.0000
vn 0.0000 0.0000 -1.0000
vn 0.0000 0.0000 -1.0000
vn 0.0000 0.0000 -1.0000
vn 0.0000 0.0000 -1.0000
vn 0.0000 0.0000 -1.0000
vn 0.0000 0.0000 -1.0000
vn 0.0000 0.0000 -1.0000
vn 0.0000 0.0000 -1.0000
vn 0.0000 0.0000 -1.0000
vn 0.0000 0.0000 -1.0000
vn 0.0000 0.0000 -1.0000
vn 0.0000 0.0000 -1.0000
vn 0.0000 0.0000 -1.0000
vn 0.0000 0.0000 -1.0000
vn 0.0000 0.0000 -1.0000
vn 0.0000 0.0000 -1.0000
vn 0.0000 0.0000 -1.0000
vn 0.0000 0.0000 -1.0000
vn 0.0000 0.0000 -1.0000
vn 0.0000 0.0000 -1.0000
vn 0.0000 0.0000 -1.0000
vn 0.0000 0.0000 -1.0000
vn 0.0000 0.0000 -1.0000
vn 0.0000 0.0000 -1.0000
vn 0.0000 0.0000 -1.0000
vn 0.0000 0.0000 -1.0000
vn 0.0000 0.0000 -1.0000
vn 0.0000 0.0000 -1.0000
vn 0.0000 0.0000 -1.0000
vn 0.0000 0.0000 -1.0000
vn 0.0000 0.0000 -1.0000
vn 0.0000 0.0000 -1.0000
vn 0.0000 0.0000 -1.0000
vn 0.0000 0.0000 -1.0000
vn 0.0000 0.0000 -1.0000
vn 0.0000 0.0000 -1.0000
vn 0.0000 0.0000 -1.0000
vn 0.0000 0.0000 -1.0000
vn 0.0000 0.0000 -1.0000
vn 0.0000 0.0000 -1.0000
vn 0.0000 0.0000 -1.0000
vn 0.0000 0.0000 -1.0000
vn 0.0000 0.0000 -1.0000
vn 0.0000 0.0000 -1.0000
vn 0.0000 0.0000 -1.0000
vn 0.0000 0.0000 -1.0000
vn 0.0000 0.0000 -1.0000
vn 0.0000 0.0000 -1.0000
vn 0.0000 0.0000 -1.0000
vn 0.0000 0.0000 -1.0000
vn 0.0000 0.0000 -1.0000
vn 0.0000 0.0000 -1.0000
vn 0.0000 0.0000 -1.0000
vn 0.0000 0.0000 -1.0000
vn 0.0000 0.0000 -1.0000
vn 0.0000 0.0000 -1.0000
vn 0.0000 0.0000 -1.0000
vn 0.0000 0.0000 -1.0000
vn 0.0000 0.0000 -1.0000
vn 0.0000 0.0000 -1.0000
vn 0.0000 0.0000 -1.0000
vn 0.0000 0.0000 -1.0000
vn 0.0000 0.0000 -1.0000
vn 0.0000 0.0000 -1.0000
vn 0.0000 0.0000 -1.0000
vn 0.0000 0.0000 -1.0000
vn 0.0000 0.0000 -1.0000
vn 0.0000 0.0000 -1.0000
vn 0.0000 0.0000 -1.0000
vn 0.0000 0.0000 -1.0000
vn 0.0000 0.0000 -1.0000
vn 0.0000 0.0000 -1.0000
vn 0.0000 0.0000 -1.0000
vn 0.0000 0.0000 -1.0000
vn 0.0000 0.0000 -1.0000
vn 0.0000 0.0000 -1.0000
vn 0.0000 0.0000 -1.0000
vn 0.0000 0.0000 -1.0000
vn 0.0000 0.0000 -1.0000
vn 0.0000 0.0000 -1.0000
vn 0.0000 0.0000 -1.0000
vn 0.0000 0.0000 -1.0000
vn 0.0000 0.0000 -1.0000
vn 0.0000 0.0000 -1.0000
vn 0.0000 0.0000 -1.0000
vn 0.0000 0.0000 -1.0000
vn 0.0000 0.0000 -1.0000
vn 0.0000 0.0000 -1.0000
vn 0.0000 0.0000 -1.0000
vn 0.0000 0.0000 -1.0000
vn 0.0000 0.0000 -1.0000
vn 0.0000 0.0000 -1.0000
vn 0.0000 0.0000 -1.0000
vn 0.0000 0.0000 -1.0000
vn 0.0000 0.0000 -1.0000
vn 0.0000 0.0000 -1.0000
vn 0.0000 0.0000 -1.0000
vn 0.0000 0.0000 -1.0000
usemtl M_Forest_Ground_PBR
f 1/1/1 19/19/19 2/2/2
f 1/1/1 18/18/18 19/19/19
f 2/2/2 20/20/20 3/3/3
f 2/2/2 19/19/19 20/20/20
f 3/3/3 21/21/21 4/4/4
f 3/3/3 20/20/20 21/21/21
f 4/4/4 22/22/22 5/5/5
f 4/4/4 21/21/21 22/22/22
f 5/5/5 23/23/23 6/6/6
f 5/5/5 22/22/22 23/23/23
f 6/6/6 24/24/24 7/7/7
f 6/6/6 23/23/23 24/24/24
f 7/7/7 25/25/25 8/8/8
f 7/7/7 24/24/24 25/25/25
f 8/8/8 26/26/26 9/9/9
f 8/8/8 25/25/25 26/26/26
f 9/9/9 27/27/27 10/10/10
f 9/9/9 26/26/26 27/27/27
f 10/10/10 28/28/28 11/11/11
f 10/10/10 27/27/27 28/28/28
f 11/11/11 29/29/29 12/12/12
f 11/11/11 28/28/28 29/29/29
f 12/12/12 30/30/30 13/13/13
f 12/12/12 29/29/29 30/30/30
f 13/13/13 31/31/31 14/14/14
f 13/13/13 30/30/30 31/31/31
f 14/14/14 32/32/32 15/15/15
f 14/14/14 31/31/31 32/32/32
f 15/15/15 33/33/33 16/16/16
f 15/15/15 32/32/32 33/33/33
f 16/16/16 34/34/34 17/17/17
f 16/16/16 33/33/33 34/34/34
f 18/18/18 36/36/36 19/19/19
f 18/18/18 35/35/35 36/36/36
f 19/19/19 37/37/37 20/20/20
f 19/19/19 36/36/36 37/37/37
f 20/20/20 38/38/38 21/21/21
f 20/20/20 37/37/37 38/38/38
f 21/21/21 39/39/39 22/22/22
f 21/21/21 38/38/38 39/39/39
f 22/22/22 40/40/40 23/23/23
f 22/22/22 39/39/39 40/40/40
f 23/23/23 41/41/41 24/24/24
f 23/23/23 40/40/40 41/41/41
f 24/24/24 42/42/42 25/25/25
f 24/24/24 41/41/41 42/42/42
f 25/25/25 43/43/43 26/26/26
f 25/25/25 42/42/42 43/43/43
f 26/26/26 44/44/44 27/27/27
f 26/26/26 43/43/43 44/44/44
f 27/27/27 45/45/45 28/28/28
f 27/27/27 44/44/44 45/45/45
f 28/28/28 46/46/46 29/29/29
f 28/28/28 45/45/45 46/46/46
f 29/29/29 47/47/47 30/30/30
f 29/29/29 46/46/46 47/47/47
f 30/30/30 48/48/48 31/31/31
f 30/30/30 47/47/47 48/48/48
f 31/31/31 49/49/49 32/32/32
f 31/31/31 48/48/48 49/49/49
f 32/32/32 50/50/50 33/33/33
f 32/32/32 49/49/49 50/50/50
f 33/33/33 51/51/51 34/34/34
f 33/33/33 50/50/50 51/51/51
f 35/35/35 53/53/53 36/36/36
f 35/35/35 52/52/52 53/53/53
f 36/36/36 54/54/54 37/37/37
f 36/36/36 53/53/53 54/54/54
f 37/37/37 55/55/55 38/38/38
f 37/37/37 54/54/54 55/55/55
f 38/38/38 56/56/56 39/39/39
f 38/38/38 55/55/55 56/56/56
f 39/39/39 57/57/57 40/40/40
f 39/39/39 56/56/56 57/57/57
f 40/40/40 58/58/58 41/41/41
f 40/40/40 57/57/57 58/58/58
f 41/41/41 59/59/59 42/42/42
f 41/41/41 58/58/58 59/59/59
f 42/42/42 60/60/60 43/43/43
f 42/42/42 59/59/59 60/60/60
f 43/43/43 61/61/61 44/44/44
f 43/43/43 60/60/60 61/61/61
f 44/44/44 62/62/62 45/45/45
f 44/44/44 61/61/61 62/62/62
f 45/45/45 63/63/63 46/46/46
f 45/45/45 62/62/62 63/63/63
f 46/46/46 64/64/64 47/47/47
f 46/46/46 63/63/63 64/64/64
f 47/47/47 65/65/65 48/48/48
f 47/47/47 64/64/64 65/65/65
f 48/48/48 66/66/66 49/49/49
f 48/48/48 65/65/65 66/66/66
f 49/49/49 67/67/67 50/50/50
f 49/49/49 66/66/66 67/67/67
f 50/50/50 68/68/68 51/51/51
f 50/50/50 67/67/67 68/68/68
f 52/52/52 70/70/70 53/53/53
f 52/52/52 69/69/69 70/70/70
f 53/53/53 71/71/71 54/54/54
f 53/53/53 70/70/70 71/71/71
f 54/54/54 72/72/72 55/55/55
f 54/54/54 71/71/71 72/72/72
f 55/55/55 73/73/73 56/56/56
f 55/55/55 72/72/72 73/73/73
f 56/56/56 74/74/74 57/57/57
f 56/56/56 73/73/73 74/74/74
f 57/57/57 75/75/75 58/58/58
f 57/57/57 74/74/74 75/75/75
f 58/58/58 76/76/76 59/59/59
f 58/58/58 75/75/75 76/76/76
f 59/59/59 77/77/77 60/60/60
f 59/59/59 76/76/76 77/77/77
f 60/60/60 78/78/78 61/61/61
f 60/60/60 77/77/77 78/78/78
f 61/61/61 79/79/79 62/62/62
f 61/61/61 78/78/78 79/79/79
f 62/62/62 80/80/80 63/63/63
f 62/62/62 79/79/79 80/80/80
f 63/63/63 81/81/81 64/64/64
f 63/63/63 80/80/80 81/81/81
f 64/64/64 82/82/82 65/65/65
f 64/64/64 81/81/81 82/82/82
f 65/65/65 83/83/83 66/66/66
f 65/65/65 82/82/82 83/83/83
f 66/66/66 84/84/84 67/67/67
f 66/66/66 83/83/83 84/84/84
f 67/67/67 85/85/85 68/68/68
f 67/67/67 84/84/84 85/85/85
f 69/69/69 87/87/87 70/70/70
f 69/69/69 86/86/86 87/87/87
f 70/70/70 88/88/88 71/71/71
f 70/70/70 87/87/87 88/88/88
f 71/71/71 89/89/89 72/72/72
f 71/71/71 88/88/88 89/89/89
f 72/72/72 90/90/90 73/73/73
f 72/72/72 89/89/89 90/90/90
f 73/73/73 91/91/91 74/74/74
f 73/73/73 90/90/90 91/91/91
f 74/74/74 92/92/92 75/75/75
f 74/74/74 91/91/91 92/92/92
f 75/75/75 93/93/93 76/76/76
f 75/75/75 92/92/92 93/93/93
f 76/76/76 94/94/94 77/77/77
f 76/76/76 93/93/93 94/94/94
f 77/77/77 95/95/95 78/78/78
f 77/77/77 94/94/94 95/95/95
f 78/78/78 96/96/96 79/79/79
f 78/78/78 95/95/95 96/96/96
f 79/79/79 97/97/97 80/80/80
f 79/79/79 96/96/96 97/97/97
f 80/80/80 98/98/98 81/81/81
f 80/80/80 97/97/97 98/98/98
f 81/81/81 99/99/99 82/82/82
f 81/81/81 98/98/98 99/99/99
f 82/82/82 100/100/100 83/83/83
f 82/82/82 99/99/99 100/100/100
f 83/83/83 101/101/101 84/84/84
f 83/83/83 100/100/100 101/101/101
f 84/84/84 102/102/102 85/85/85
f 84/84/84 101/101/101 102/102/102
f 86/86/86 104/104/104 87/87/87
f 86/86/86 103/103/103 104/104/104
f 87/87/87 105/105/105 88/88/88
f 87/87/87 104/104/104 105/105/105
f 88/88/88 106/106/106 89/89/89
f 88/88/88 105/105/105 106/106/106
f 89/89/89 107/107/107 90/90/90
f 89/89/89 106/106/106 107/107/107
f 90/90/90 108/108/108 91/91/91
f 90/90/90 107/107/107 108/108/108
f 91/91/91 109/109/109 92/92/92
f 91/91/91 108/108/108 109/109/109
f 92/92/92 110/110/110 93/93/93
f 92/92/92 109/109/109 110/110/110
f 93/93/93 111/111/111 94/94/94
f 93/93/93 110/110/110 111/111/111
f 94/94/94 112/112/112 95/95/95
f 94/94/94 111/111/111 112/112/112
f 95/95/95 113/113/113 96/96/96
f 95/95/95 112/112/112 113/113/113
f 96/96/96 114/114/114 97/97/97
f 96/96/96 113/113/113 114/114/114
f 97/97/97 115/115/115 98/98/98
f 97/97/97 114/114/114 115/115/115
f 98/98/98 116/116/116 99/99/99
f 98/98/98 115/115/115 116/116/116
f 99/99/99 117/117/117 100/100/100
f 99/99/99 116/116/116 117/117/117
f 100/100/100 118/118/118 101/101/101
f 100/100/100 117/117/117 118/118/118
f 101/101/101 119/119/119 102/102/102
f 101/101/101 118/118/118 119/119/119
f 103/103/103 121/121/121 104/104/104
f 103/103/103 120/120/120 121/121/121
f 104/104/104 122/122/122 105/105/105
f 104/104/104 121/121/121 122/122/122
f 105/105/105 123/123/123 106/106/106
f 105/105/105 122/122/122 123/123/123
f 106/106/106 124/124/124 107/107/107
f 106/106/106 123/123/123 124/124/124
f 107/107/107 125/125/125 108/108/108
f 107/107/107 124/124/124 125/125/125
f 108/108/108 126/126/126 109/109/109
f 108/108/108 125/125/125 126/126/126
f 109/109/109 127/127/127 110/110/110
f 109/109/109 126/126/126 127/127/127
f 110/110/110 128/128/128 111/111/111
f 110/110/110 127/127/127 128/128/128
f 111/111/111 129/129/129 112/112/112
f 111/111/111 128/128/128 129/129/129
f 112/112/112 130/130/130 113/113/113
f 112/112/112 129/129/129 130/130/130
f 113/113/113 131/131/131 114/114/114
f 113/113/113 130/130/130 131/131/131
f 114/114/114 132/132/132 115/115/115
f 114/114/114 131/131/131 132/132/132
f 115/115/115 133/133/133 116/116/116
f 115/115/115 132/132/132 133/133/133
f 116/116/116 134/134/134 117/117/117
f 116/116/116 133/133/133 134/134/134
f 117/117/117 135/135/135 118/118/118
f 117/117/117 134/134/134 135/135/135
f 118/118/118 136/136/136 119/119/119
f 118/118/118 135/135/135 136/136/136
f 120/120/120 138/138/138 121/121/121
f 120/120/120 137/137/137 138/138/138
f 121/121/121 139/139/139 122/122/122
f 121/121/121 138/138/138 139/139/139
f 122/122/122 140/140/140 123/123/123
f 122/122/122 139/139/139 140/140/140
f 123/123/123 141/141/141 124/124/124
f 123/123/123 140/140/140 141/141/141
f 124/124/124 142/142/142 125/125/125
f 124/124/124 141/141/141 142/142/142
f 125/125/125 143/143/143 126/126/126
f 125/125/125 142/142/142 143/143/143
f 126/126/126 144/144/144 127/127/127
f 126/126/126 143/143/143 144/144/144
f 127/127/127 145/145/145 128/128/128
f 127/127/127 144/144/144 145/145/145
f 128/128/128 146/146/146 129/129/129
f 128/128/128 145/145/145 146/146/146
f 129/129/129 147/147/147 130/130/130
f 129/129/129 146/146/146 147/147/147
f 130/130/130 148/148/148 131/131/131
f 130/130/130 147/147/147 148/148/148
f 131/131/131 149/149/149 132/132/132
f 131/131/131 148/148/148 149/149/149
f 132/132/132 150/150/150 133/133/133
f 132/132/132 149/149/149 150/150/150
f 133/133/133 151/151/151 134/134/134
f 133/133/133 150/150/150 151/151/151
f 134/134/134 152/152/152 135/135/135
f 134/134/134 151/151/151 152/152/152
f 135/135/135 153/153/153 136/136/136
f 135/135/135 152/152/152 153/153/153
f 137/137/137 155/155/155 138/138/138
f 137/137/137 154/154/154 155/155/155
f 138/138/138 156/156/156 139/139/139
f 138/138/138 155/155/155 156/156/156
f 139/139/139 157/157/157 140/140/140
f 139/139/139 156/156/156 157/157/157
f 140/140/140 158/158/158 141/141/141
f 140/140/140 157/157/157 158/158/158
f 141/141/141 159/159/159 142/142/142
f 141/141/141 158/158/158 159/159/159
f 142/142/142 160/160/160 143/143/143
f 142/142/142 159/159/159 160/160/160
f 143/143/143 161/161/161 144/144/144
f 143/143/143 160/160/160 161/161/161
f 144/144/144 162/162/162 145/145/145
f 144/144/144 161/161/161 162/162/162
f 145/145/145 163/163/163 146/146/146
f 145/145/145 162/162/162 163/163/163
f 146/146/146 164/164/164 147/147/147
f 146/146/146 163/163/163 164/164/164
f 147/147/147 165/165/165 148/148/148
f 147/147/147 164/164/164 165/165/165
f 148/148/148 166/166/166 149/149/149
f 148/148/148 165/165/165 166/166/166
f 149/149/149 167/167/167 150/150/150
f 149/149/149 166/166/166 167/167/167
f 150/150/150 168/168/168 151/151/151
f 150/150/150 167/167/167 168/168/168
f 151/151/151 169/169/169 152/152/152
f 151/151/151 168/168/168 169/169/169
f 152/152/152 170/170/170 153/153/153
f 152/152/152 169/169/169 170/170/170
f 154/154/154 172/172/172 155/155/155
f 154/154/154 171/171/171 172/172/172
f 155/155/155 173/173/173 156/156/156
f 155/155/155 172/172/172 173/173/173
f 156/156/156 174/174/174 157/157/157
f 156/156/156 173/173/173 174/174/174
f 157/157/157 175/175/175 158/158/158
f 157/157/157 174/174/174 175/175/175
f 158/158/158 176/176/176 159/159/159
f 158/158/158 175/175/175 176/176/176
f 159/159/159 177/177/177 160/160/160
f 159/159/159 176/176/176 177/177/177
f 160/160/160 178/178/178 161/161/161
f 160/160/160 177/177/177 178/178/178
f 161/161/161 179/179/179 162/162/162
f 161/161/161 178/178/178 179/179/179
f 162/162/162 180/180/180 163/163/163
f 162/162/162 179/179/179 180/180/180
f 163/163/163 181/181/181 164/164/164
f 163/163/163 180/180/180 181/181/181
f 164/164/164 182/182/182 165/165/165
f 164/164/164 181/181/181 182/182/182
f 165/165/165 183/183/183 166/166/166
f 165/165/165 182/182/182 183/183/183
f 166/166/166 184/184/184 167/167/167
f 166/166/166 183/183/183 184/184/184
f 167/167/167 185/185/185 168/168/168
f 167/167/167 184/184/184 185/185/185
f 168/168/168 186/186/186 169/169/169
f 168/168/168 185/185/185 186/186/186
f 169/169/169 187/187/187 170/170/170
f 169/169/169 186/186/186 187/187/187
f 171/171/171 189/189/189 172/172/172
f 171/171/171 188/188/188 189/189/189
f 172/172/172 190/190/190 173/173/173
f 172/172/172 189/189/189 190/190/190
f 173/173/173 191/191/191 174/174/174
f 173/173/173 190/190/190 191/191/191
f 174/174/174 192/192/192 175/175/175
f 174/174/174 191/191/191 192/192/192
f 175/175/175 193/193/193 176/176/176
f 175/175/175 192/192/192 193/193/193
f 176/176/176 194/194/194 177/177/177
f 176/176/176 193/193/193 194/194/194
f 177/177/177 195/195/195 178/178/178
f 177/177/177 194/194/194 195/195/195
f 178/178/178 196/196/196 179/179/179
f 178/178/178 195/195/195 196/196/196
f 179/179/179 197/197/197 180/180/180
f 179/179/179 196/196/196 197/197/197
f 180/180/180 198/198/198 181/181/181
f 180/180/180 197/197/197 198/198/198
f 181/181/181 199/199/199 182/182/182
f 181/181/181 198/198/198 199/199/199
f 182/182/182 200/200/200 183/183/183
f 182/182/182 199/199/199 200/200/200
f 183/183/183 201/201/201 184/184/184
f 183/183/183 200/200/200 201/201/201
f 184/184/184 202/202/202 185/185/185
f 184/184/184 201/201/201 202/202/202
f 185/185/185 203/203/203 186/186/186
f 185/185/185 202/202/202 203/203/203
f 186/186/186 204/204/204 187/187/187
f 186/186/186 203/203/203 204/204/204
f 188/188/188 206/206/206 189/189/189
f 188/188/188 205/205/205 206/206/206
f 189/189/189 207/207/207 190/190/190
f 189/189/189 206/206/206 207/207/207
f 190/190/190 208/208/208 191/191/191
f 190/190/190 207/207/207 208/208/208
f 191/191/191 209/209/209 192/192/192
f 191/191/191 208/208/208 209/209/209
f 192/192/192 210/210/210 193/193/193
f 192/192/192 209/209/209 210/210/210
f 193/193/193 211/211/211 194/194/194
f 193/193/193 210/210/210 211/211/211
f 194/194/194 212/212/212 195/195/195
f 194/194/194 211/211/211 212/212/212
f 195/195/195 213/213/213 196/196/196
f 195/195/195 212/212/212 213/213/213
f 196/196/196 214/214/214 197/197/197
f 196/196/196 213/213/213 214/214/214
f 197/197/197 215/215/215 198/198/198
f 197/197/197 214/214/214 215/215/215
f 198/198/198 216/216/216 199/199/199
f 198/198/198 215/215/215 216/216/216
f 199/199/199 217/217/217 200/200/200
f 199/199/199 216/216/216 217/217/217
f 200/200/200 218/218/218 201/201/201
f 200/200/200 217/217/217 218/218/218
f 201/201/201 219/219/219 202/202/202
f 201/201/201 218/218/218 219/219/219
f 202/202/202 220/220/220 203/203/203
f 202/202/202 219/219/219 220/220/220
f 203/203/203 221/221/221 204/204/204
f 203/203/203 220/220/220 221/221/221
f 205/205/205 223/223/223 206/206/206
f 205/205/205 222/222/222 223/223/223
f 206/206/206 224/224/224 207/207/207
f 206/206/206 223/223/223 224/224/224
f 207/207/207 225/225/225 208/208/208
f 207/207/207 224/224/224 225/225/225
f 208/208/208 226/226/226 209/209/209
f 208/208/208 225/225/225 226/226/226
f 209/209/209 227/227/227 210/210/210
f 209/209/209 226/226/226 227/227/227
f 210/210/210 228/228/228 211/211/211
f 210/210/210 227/227/227 228/228/228
f 211/211/211 229/229/229 212/212/212
f 211/211/211 228/228/228 229/229/229
f 212/212/212 230/230/230 213/213/213
f 212/212/212 229/229/229 230/230/230
f 213/213/213 231/231/231 214/214/214
f 213/213/213 230/230/230 231/231/231
f 214/214/214 232/232/232 215/215/215
f 214/214/214 231/231/231 232/232/232
f 215/215/215 233/233/233 216/216/216
f 215/215/215 232/232/232 233/233/233
f 216/216/216 234/234/234 217/217/217
f 216/216/216 233/233/233 234/234/234
f 217/217/217 235/235/235 218/218/218
f 217/217/217 234/234/234 235/235/235
f 218/218/218 236/236/236 219/219/219
f 218/218/218 235/235/235 236/236/236
f 219/219/219 237/237/237 220/220/220
f 219/219/219 236/236/236 237/237/237
f 220/220/220 238/238/238 221/221/221
f 220/220/220 237/237/237 238/238/238
f 222/222/222 240/240/240 223/223/223
f 222/222/222 239/239/239 240/240/240
f 223/223/223 241/241/241 224/224/224
f 223/223/223 240/240/240 241/241/241
f 224/224/224 242/242/242 225/225/225
f 224/224/224 241/241/241 242/242/242
f 225/225/225 243/243/243 226/226/226
f 225/225/225 242/242/242 243/243/243
f 226/226/226 244/244/244 227/227/227
f 226/226/226 243/243/243 244/244/244
f 227/227/227 245/245/245 228/228/228
f 227/227/227 244/244/244 245/245/245
f 228/228/228 246/246/246 229/229/229
f 228/228/228 245/245/245 246/246/246
f 229/229/229 247/247/247 230/230/230
f 229/229/229 246/246/246 247/247/247
f 230/230/230 248/248/248 231/231/231
f 230/230/230 247/247/247 248/248/248
f 231/231/231 249/249/249 232/232/232
f 231/231/231 248/248/248 249/249/249
f 232/232/232 250/250/250 233/233/233
f 232/232/232 249/249/249 250/250/250
f 233/233/233 251/251/251 234/234/234
f 233/233/233 250/250/250 251/251/251
f 234/234/234 252/252/252 235/235/235
f 234/234/234 251/251/251 252/252/252
f 235/235/235 253/253/253 236/236/236
f 235/235/235 252/252/252 253/253/253
f 236/236/236 254/254/254 237/237/237
f 236/236/236 253/253/253 254/254/254
f 237/237/237 255/255/255 238/238/238
f 237/237/237 254/254/254 255/255/255
f 239/239/239 257/257/257 240/240/240
f 239/239/239 256/256/256 257/257/257
f 240/240/240 258/258/258 241/241/241
f 240/240/240 257/257/257 258/258/258
f 241/241/241 259/259/259 242/242/242
f 241/241/241 258/258/258 259/259/259
f 242/242/242 260/260/260 243/243/243
f 242/242/242 259/259/259 260/260/260
f 243/243/243 261/261/261 244/244/244
f 243/243/243 260/260/260 261/261/261
f 244/244/244 262/262/262 245/245/245
f 244/244/244 261/261/261 262/262/262
f 245/245/245 263/263/263 246/246/246
f 245/245/245 262/262/262 263/263/263
f 246/246/246 264/264/264 247/247/247
f 246/246/246 263/263/263 264/264/264
f 247/247/247 265/265/265 248/248/248
f 247/247/247 264/264/264 265/265/265
f 248/248/248 266/266/266 249/249/249
f 248/248/248 265/265/265 266/266/266
f 249/249/249 267/267/267 250/250/250
f 249/249/249 266/266/266 267/267/267
f 250/250/250 268/268/268 251/251/251
f 250/250/250 267/267/267 268/268/268
f 251/251/251 269/269/269 252/252/252
f 251/251/251 268/268/268 269/269/269
f 252/252/252 270/270/270 253/253/253
f 252/252/252 269/269/269 270/270/270
f 253/253/253 271/271/271 254/254/254
f 253/253/253 270/270/270 271/271/271
f 254/254/254 272/272/272 255/255/255
f 254/254/254 271/271/271 272/272/272
f 256/256/256 274/274/274 257/257/257
f 256/256/256 273/273/273 274/274/274
f 257/257/257 275/275/275 258/258/258
f 257/257/257 274/274/274 275/275/275
f 258/258/258 276/276/276 259/259/259
f 258/258/258 275/275/275 276/276/276
f 259/259/259 277/277/277 260/260/260
f 259/259/259 276/276/276 277/277/277
f 260/260/260 278/278/278 261/261/261
f 260/260/260 277/277/277 278/278/278
f 261/261/261 279/279/279 262/262/262
f 261/261/261 278/278/278 279/279/279
f 262/262/262 280/280/280 263/263/263
f 262/262/262 279/279/279 280/280/280
f 263/263/263 281/281/281 264/264/264
f 263/263/263 280/280/280 281/281/281
f 264/264/264 282/282/282 265/265/265
f 264/264/264 281/281/281 282/282/282
f 265/265/265 283/283/283 266/266/266
f 265/265/265 282/282/282 283/283/283
f 266/266/266 284/284/284 267/267/267
f 266/266/266 283/283/283 284/284/284
f 267/267/267 285/285/285 268/268/268
f 267/267/267 284/284/284 285/285/285
f 268/268/268 286/286/286 269/269/269
f 268/268/268 285/285/285 286/286/286
f 269/269/269 287/287/287 270/270/270
f 269/269/269 286/286/286 287/287/287
f 270/270/270 288/288/288 271/271/271
f 270/270/270 287/287/287 288/288/288
f 271/271/271 289/289/289 272/272/272
f 271/271/271 288/288/288 289/289/289
f 290/290/290 291/291/291 308/308/308
f 290/290/290 308/308/308 307/307/307
f 291/291/291 292/292/292 309/309/309
f 291/291/291 309/309/309 308/308/308
f 292/292/292 293/293/293 310/310/310
f 292/292/292 310/310/310 309/309/309
f 293/293/293 294/294/294 311/311/311
f 293/293/293 311/311/311 310/310/310
f 294/294/294 295/295/295 312/312/312
f 294/294/294 312/312/312 311/311/311
f 295/295/295 296/296/296 313/313/313
f 295/295/295 313/313/313 312/312/312
f 296/296/296 297/297/297 314/314/314
f 296/296/296 314/314/314 313/313/313
f 297/297/297 298/298/298 315/315/315
f 297/297/297 315/315/315 314/314/314
f 298/298/298 299/299/299 316/316/316
f 298/298/298 316/316/316 315/315/315
f 299/299/299 300/300/300 317/317/317
f 299/299/299 317/317/317 316/316/316
f 300/300/300 301/301/301 318/318/318
f 300/300/300 318/318/318 317/317/317
f 301/301/301 302/302/302 319/319/319
f 301/301/301 319/319/319 318/318/318
f 302/302/302 303/303/303 320/320/320
f 302/302/302 320/320/320 319/319/319
f 303/303/303 304/304/304 321/321/321
f 303/303/303 321/321/321 320/320/320
f 304/304/304 305/305/305 322/322/322
f 304/304/304 322/322/322 321/321/321
f 305/305/305 306/306/306 323/323/323
f 305/305/305 323/323/323 322/322/322
f 307/307/307 308/308/308 325/325/325
f 307/307/307 325/325/325 324/324/324
f 308/308/308 309/309/309 326/326/326
f 308/308/308 326/326/326 325/325/325
f 309/309/309 310/310/310 327/327/327
f 309/309/309 327/327/327 326/326/326
f 310/310/310 311/311/311 328/328/328
f 310/310/310 328/328/328 327/327/327
f 311/311/311 312/312/312 329/329/329
f 311/311/311 329/329/329 328/328/328
f 312/312/312 313/313/313 330/330/330
f 312/312/312 330/330/330 329/329/329
f 313/313/313 314/314/314 331/331/331
f 313/313/313 331/331/331 330/330/330
f 314/314/314 315/315/315 332/332/332
f 314/314/314 332/332/332 331/331/331
f 315/315/315 316/316/316 333/333/333
f 315/315/315 333/333/333 332/332/332
f 316/316/316 317/317/317 334/334/334
f 316/316/316 334/334/334 333/333/333
f 317/317/317 318/318/318 335/335/335
f 317/317/317 335/335/335 334/334/334
f 318/318/318 319/319/319 336/336/336
f 318/318/318 336/336/336 335/335/335
f 319/319/319 320/320/320 337/337/337
f 319/319/319 337/337/337 336/336/336
f 320/320/320 321/321/321 338/338/338
f 320/320/320 338/338/338 337/337/337
f 321/321/321 322/322/322 339/339/339
f 321/321/321 339/339/339 338/338/338
f 322/322/322 323/323/323 340/340/340
f 322/322/322 340/340/340 339/339/339
f 324/324/324 325/325/325 342/342/342
f 324/324/324 342/342/342 341/341/341
f 325/325/325 326/326/326 343/343/343
f 325/325/325 343/343/343 342/342/342
f 326/326/326 327/327/327 344/344/344
f 326/326/326 344/344/344 343/343/343
f 327/327/327 328/328/328 345/345/345
f 327/327/327 345/345/345 344/344/344
f 328/328/328 329/329/329 346/346/346
f 328/328/328 346/346/346 345/345/345
f 329/329/329 330/330/330 347/347/347
f 329/329/329 347/347/347 346/346/346
f 330/330/330 331/331/331 348/348/348
f 330/330/330 348/348/348 347/347/347
f 331/331/331 332/332/332 349/349/349
f 331/331/331 349/349/349 348/348/348
f 332/332/332 333/333/333 350/350/350
f 332/332/332 350/350/350 349/349/349
f 333/333/333 334/334/334 351/351/351
f 333/333/333 351/351/351 350/350/350
f 334/334/334 335/335/335 352/352/352
f 334/334/334 352/352/352 351/351/351
f 335/335/335 336/336/336 353/353/353
f 335/335/335 353/353/353 352/352/352
f 336/336/336 337/337/337 354/354/354
f 336/336/336 354/354/354 353/353/353
f 337/337/337 338/338/338 355/355/355
f 337/337/337 355/355/355 354/354/354
f 338/338/338 339/339/339 356/356/356
f 338/338/338 356/356/356 355/355/355
f 339/339/339 340/340/340 357/357/357
f 339/339/339 357/357/357 356/356/356
f 341/341/341 342/342/342 359/359/359
f 341/341/341 359/359/359 358/358/358
f 342/342/342 343/343/343 360/360/360
f 342/342/342 360/360/360 359/359/359
f 343/343/343 344/344/344 361/361/361
f 343/343/343 361/361/361 360/360/360
f 344/344/344 345/345/345 362/362/362
f 344/344/344 362/362/362 361/361/361
f 345/345/345 346/346/346 363/363/363
f 345/345/345 363/363/363 362/362/362
f 346/346/346 347/347/347 364/364/364
f 346/346/346 364/364/364 363/363/363
f 347/347/347 348/348/348 365/365/365
f 347/347/347 365/365/365 364/364/364
f 348/348/348 349/349/349 366/366/366
f 348/348/348 366/366/366 365/365/365
f 349/349/349 350/350/350 367/367/367
f 349/349/349 367/367/367 366/366/366
f 350/350/350 351/351/351 368/368/368
f 350/350/350 368/368/368 367/367/367
f 351/351/351 352/352/352 369/369/369
f 351/351/351 369/369/369 368/368/368
f 352/352/352 353/353/353 370/370/370
f 352/352/352 370/370/370 369/369/369
f 353/353/353 354/354/354 371/371/371
f 353/353/353 371/371/371 370/370/370
f 354/354/354 355/355/355 372/372/372
f 354/354/354 372/372/372 371/371/371
f 355/355/355 356/356/356 373/373/373
f 355/355/355 373/373/373 372/372/372
f 356/356/356 357/357/357 374/374/374
f 356/356/356 374/374/374 373/373/373
f 358/358/358 359/359/359 376/376/376
f 358/358/358 376/376/376 375/375/375
f 359/359/359 360/360/360 377/377/377
f 359/359/359 377/377/377 376/376/376
f 360/360/360 361/361/361 378/378/378
f 360/360/360 378/378/378 377/377/377
f 361/361/361 362/362/362 379/379/379
f 361/361/361 379/379/379 378/378/378
f 362/362/362 363/363/363 380/380/380
f 362/362/362 380/380/380 379/379/379
f 363/363/363 364/364/364 381/381/381
f 363/363/363 381/381/381 380/380/380
f 364/364/364 365/365/365 382/382/382
f 364/364/364 382/382/382 381/381/381
f 365/365/365 366/366/366 383/383/383
f 365/365/365 383/383/383 382/382/382
f 366/366/366 367/367/367 384/384/384
f 366/366/366 384/384/384 383/383/383
f 367/367/367 368/368/368 385/385/385
f 367/367/367 385/385/385 384/384/384
f 368/368/368 369/369/369 386/386/386
f 368/368/368 386/386/386 385/385/385
f 369/369/369 370/370/370 387/387/387
f 369/369/369 387/387/387 386/386/386
f 370/370/370 371/371/371 388/388/388
f 370/370/370 388/388/388 387/387/387
f 371/371/371 372/372/372 389/389/389
f 371/371/371 389/389/389 388/388/388
f 372/372/372 373/373/373 390/390/390
f 372/372/372 390/390/390 389/389/389
f 373/373/373 374/374/374 391/391/391
f 373/373/373 391/391/391 390/390/390
f 375/375/375 376/376/376 393/393/393
f 375/375/375 393/393/393 392/392/392
f 376/376/376 377/377/377 394/394/394
f 376/376/376 394/394/394 393/393/393
f 377/377/377 378/378/378 395/395/395
f 377/377/377 395/395/395 394/394/394
f 378/378/378 379/379/379 396/396/396
f 378/378/378 396/396/396 395/395/395
f 379/379/379 380/380/380 397/397/397
f 379/379/379 397/397/397 396/396/396
f 380/380/380 381/381/381 398/398/398
f 380/380/380 398/398/398 397/397/397
f 381/381/381 382/382/382 399/399/399
f 381/381/381 399/399/399 398/398/398
f 382/382/382 383/383/383 400/400/400
f 382/382/382 400/400/400 399/399/399
f 383/383/383 384/384/384 401/401/401
f 383/383/383 401/401/401 400/400/400
f 384/384/384 385/385/385 402/402/402
f 384/384/384 402/402/402 401/401/401
f 385/385/385 386/386/386 403/403/403
f 385/385/385 403/403/403 402/402/402
f 386/386/386 387/387/387 404/404/404
f 386/386/386 404/404/404 403/403/403
f 387/387/387 388/388/388 405/405/405
f 387/387/387 405/405/405 404/404/404
f 388/388/388 389/389/389 406/406/406
f 388/388/388 406/406/406 405/405/405
f 389/389/389 390/390/390 407/407/407
f 389/389/389 407/407/407 406/406/406
f 390/390/390 391/391/391 408/408/408
f 390/390/390 408/408/408 407/407/407
f 392/392/392 393/393/393 410/410/410
f 392/392/392 410/410/410 409/409/409
f 393/393/393 394/394/394 411/411/411
f 393/393/393 411/411/411 410/410/410
f 394/394/394 395/395/395 412/412/412
f 394/394/394 412/412/412 411/411/411
f 395/395/395 396/396/396 413/413/413
f 395/395/395 413/413/413 412/412/412
f 396/396/396 397/397/397 414/414/414
f 396/396/396 414/414/414 413/413/413
f 397/397/397 398/398/398 415/415/415
f 397/397/397 415/415/415 414/414/414
f 398/398/398 399/399/399 416/416/416
f 398/398/398 416/416/416 415/415/415
f 399/399/399 400/400/400 417/417/417
f 399/399/399 417/417/417 416/416/416
f 400/400/400 401/401/401 418/418/418
f 400/400/400 418/418/418 417/417/417
f 401/401/401 402/402/402 419/419/419
f 401/401/401 419/419/419 418/418/418
f 402/402/402 403/403/403 420/420/420
f 402/402/402 420/420/420 419/419/419
f 403/403/403 404/404/404 421/421/421
f 403/403/403 421/421/421 420/420/420
f 404/404/404 405/405/405 422/422/422
f 404/404/404 422/422/422 421/421/421
f 405/405/405 406/406/406 423/423/423
f 405/405/405 423/423/423 422/422/422
f 406/406/406 407/407/407 424/424/424
f 406/406/406 424/424/424 423/423/423
f 407/407/407 408/408/408 425/425/425
f 407/407/407 425/425/425 424/424/424
f 409/409/409 410/410/410 427/427/427
f 409/409/409 427/427/427 426/426/426
f 410/410/410 411/411/411 428/428/428
f 410/410/410 428/428/428 427/427/427
f 411/411/411 412/412/412 429/429/429
f 411/411/411 429/429/429 428/428/428
f 412/412/412 413/413/413 430/430/430
f 412/412/412 430/430/430 429/429/429
f 413/413/413 414/414/414 431/431/431
f 413/413/413 431/431/431 430/430/430
f 414/414/414 415/415/415 432/432/432
f 414/414/414 432/432/432 431/431/431
f 415/415/415 416/416/416 433/433/433
f 415/415/415 433/433/433 432/432/432
f 416/416/416 417/417/417 434/434/434
f 416/416/416 434/434/434 433/433/433
f 417/417/417 418/418/418 435/435/435
f 417/417/417 435/435/435 434/434/434
f 418/418/418 419/419/419 436/436/436
f 418/418/418 436/436/436 435/435/435
f 419/419/419 420/420/420 437/437/437
f 419/419/419 437/437/437 436/436/436
f 420/420/420 421/421/421 438/438/438
f 420/420/420 438/438/438 437/437/437
f 421/421/421 422/422/422 439/439/439
f 421/421/421 439/439/439 438/438/438
f 422/422/422 423/423/423 440/440/440
f 422/422/422 440/440/440 439/439/439
f 423/423/423 424/424/424 441/441/441
f 423/423/423 441/441/441 440/440/440
f 424/424/424 425/425/425 442/442/442
f 424/424/424 442/442/442 441/441/441
f 426/426/426 427/427/427 444/444/444
f 426/426/426 444/444/444 443/443/443
f 427/427/427 428/428/428 445/445/445
f 427/427/427 445/445/445 444/444/444
f 428/428/428 429/429/429 446/446/446
f 428/428/428 446/446/446 445/445/445
f 429/429/429 430/430/430 447/447/447
f 429/429/429 447/447/447 446/446/446
f 430/430/430 431/431/431 448/448/448
f 430/430/430 448/448/448 447/447/447
f 431/431/431 432/432/432 449/449/449
f 431/431/431 449/449/449 448/448/448
f 432/432/432 433/433/433 450/450/450
f 432/432/432 450/450/450 449/449/449
f 433/433/433 434/434/434 451/451/451
f 433/433/433 451/451/451 450/450/450
f 434/434/434 435/435/435 452/452/452
f 434/434/434 452/452/452 451/451/451
f 435/435/435 436/436/436 453/453/453
f 435/435/435 453/453/453 452/452/452
f 436/436/436 437/437/437 454/454/454
f 436/436/436 454/454/454 453/453/453
f 437/437/437 438/438/438 455/455/455
f 437/437/437 455/455/455 454/454/454
f 438/438/438 439/439/439 456/456/456
f 438/438/438 456/456/456 455/455/455
f 439/439/439 440/440/440 457/457/457
f 439/439/439 457/457/457 456/456/456
f 440/440/440 441/441/441 458/458/458
f 440/440/440 458/458/458 457/457/457
f 441/441/441 442/442/442 459/459/459
f 441/441/441 459/459/459 458/458/458
f 443/443/443 444/444/444 461/461/461
f 443/443/443 461/461/461 460/460/460
f 444/444/444 445/445/445 462/462/462
f 444/444/444 462/462/462 461/461/461
f 445/445/445 446/446/446 463/463/463
f 445/445/445 463/463/463 462/462/462
f 446/446/446 447/447/447 464/464/464
f 446/446/446 464/464/464 463/463/463
f 447/447/447 448/448/448 465/465/465
f 447/447/447 465/465/465 464/464/464
f 448/448/448 449/449/449 466/466/466
f 448/448/448 466/466/466 465/465/465
f 449/449/449 450/450/450 467/467/467
f 449/449/449 467/467/467 466/466/466
f 450/450/450 451/451/451 468/468/468
f 450/450/450 468/468/468 467/467/467
f 451/451/451 452/452/452 469/469/469
f 451/451/451 469/469/469 468/468/468
f 452/452/452 453/453/453 470/470/470
f 452/452/452 470/470/470 469/469/469
f 453/453/453 454/454/454 471/471/471
f 453/453/453 471/471/471 470/470/470
f 454/454/454 455/455/455 472/472/472
f 454/454/454 472/472/472 471/471/471
f 455/455/455 456/456/456 473/473/473
f 455/455/455 473/473/473 472/472/472
f 456/456/456 457/457/457 474/474/474
f 456/456/456 474/474/474 473/473/473
f 457/457/457 458/458/458 475/475/475
f 457/457/457 475/475/475 474/474/474
f 458/458/458 459/459/459 476/476/476
f 458/458/458 476/476/476 475/475/475
f 460/460/460 461/461/461 478/478/478
f 460/460/460 478/478/478 477/477/477
f 461/461/461 462/462/462 479/479/479
f 461/461/461 479/479/479 478/478/478
f 462/462/462 463/463/463 480/480/480
f 462/462/462 480/480/480 479/479/479
f 463/463/463 464/464/464 481/481/481
f 463/463/463 481/481/481 480/480/480
f 464/464/464 465/465/465 482/482/482
f 464/464/464 482/482/482 481/481/481
f 465/465/465 466/466/466 483/483/483
f 465/465/465 483/483/483 482/482/482
f 466/466/466 467/467/467 484/484/484
f 466/466/466 484/484/484 483/483/483
f 467/467/467 468/468/468 485/485/485
f 467/467/467 485/485/485 484/484/484
f 468/468/468 469/469/469 486/486/486
f 468/468/468 486/486/486 485/485/485
f 469/469/469 470/470/470 487/487/487
f 469/469/469 487/487/487 486/486/486
f 470/470/470 471/471/471 488/488/488
f 470/470/470 488/488/488 487/487/487
f 471/471/471 472/472/472 489/489/489
f 471/471/471 489/489/489 488/488/488
f 472/472/472 473/473/473 490/490/490
f 472/472/472 490/490/490 489/489/489
f 473/473/473 474/474/474 491/491/491
f 473/473/473 491/491/491 490/490/490
f 474/474/474 475/475/475 492/492/492
f 474/474/474 492/492/492 491/491/491
f 475/475/475 476/476/476 493/493/493
f 475/475/475 493/493/493 492/492/492
f 477/477/477 478/478/478 495/495/495
f 477/477/477 495/495/495 494/494/494
f 478/478/478 479/479/479 496/496/496
f 478/478/478 496/496/496 495/495/495
f 479/479/479 480/480/480 497/497/497
f 479/479/479 497/497/497 496/496/496
f 480/480/480 481/481/481 498/498/498
f 480/480/480 498/498/498 497/497/497
f 481/481/481 482/482/482 499/499/499
f 481/481/481 499/499/499 498/498/498
f 482/482/482 483/483/483 500/500/500
f 482/482/482 500/500/500 499/499/499
f 483/483/483 484/484/484 501/501/501
f 483/483/483 501/501/501 500/500/500
f 484/484/484 485/485/485 502/502/502
f 484/484/484 502/502/502 501/501/501
f 485/485/485 486/486/486 503/503/503
f 485/485/485 503/503/503 502/502/502
f 486/486/486 487/487/487 504/504/504
f 486/486/486 504/504/504 503/503/503
f 487/487/487 488/488/488 505/505/505
f 487/487/487 505/505/505 504/504/504
f 488/488/488 489/489/489 506/506/506
f 488/488/488 506/506/506 505/505/505
f 489/489/489 490/490/490 507/507/507
f 489/489/489 507/507/507 506/506/506
f 490/490/490 491/491/491 508/508/508
f 490/490/490 508/508/508 507/507/507
f 491/491/491 492/492/492 509/509/509
f 491/491/491 509/509/509 508/508/508
f 492/492/492 493/493/493 510/510/510
f 492/492/492 510/510/510 509/509/509
f 494/494/494 495/495/495 512/512/512
f 494/494/494 512/512/512 511/511/511
f 495/495/495 496/496/496 513/513/513
f 495/495/495 513/513/513 512/512/512
f 496/496/496 497/497/497 514/514/514
f 496/496/496 514/514/514 513/513/513
f 497/497/497 498/498/498 515/515/515
f 497/497/497 515/515/515 514/514/514
f 498/498/498 499/499/499 516/516/516
f 498/498/498 516/516/516 515/515/515
f 499/499/499 500/500/500 517/517/517
f 499/499/499 517/517/517 516/516/516
f 500/500/500 501/501/501 518/518/518
f 500/500/500 518/518/518 517/517/517
f 501/501/501 502/502/502 519/519/519
f 501/501/501 519/519/519 518/518/518
f 502/502/502 503/503/503 520/520/520
f 502/502/502 520/520/520 519/519/519
f 503/503/503 504/504/504 521/521/521
f 503/503/503 521/521/521 520/520/520
f 504/504/504 505/505/505 522/522/522
f 504/504/504 522/522/522 521/521/521
f 505/505/505 506/506/506 523/523/523
f 505/505/505 523/523/523 522/522/522
f 506/506/506 507/507/507 524/524/524
f 506/506/506 524/524/524 523/523/523
f 507/507/507 508/508/508 525/525/525
f 507/507/507 525/525/525 524/524/524
f 508/508/508 509/509/509 526/526/526
f 508/508/508 526/526/526 525/525/525
f 509/509/509 510/510/510 527/527/527
f 509/509/509 527/527/527 526/526/526
f 511/511/511 512/512/512 529/529/529
f 511/511/511 529/529/529 528/528/528
f 512/512/512 513/513/513 530/530/530
f 512/512/512 530/530/530 529/529/529
f 513/513/513 514/514/514 531/531/531
f 513/513/513 531/531/531 530/530/530
f 514/514/514 515/515/515 532/532/532
f 514/514/514 532/532/532 531/531/531
f 515/515/515 516/516/516 533/533/533
f 515/515/515 533/533/533 532/532/532
f 516/516/516 517/517/517 534/534/534
f 516/516/516 534/534/534 533/533/533
f 517/517/517 518/518/518 535/535/535
f 517/517/517 535/535/535 534/534/534
f 518/518/518 519/519/519 536/536/536
f 518/518/518 536/536/536 535/535/535
f 519/519/519 520/520/520 537/537/537
f 519/519/519 537/537/537 536/536/536
f 520/520/520 521/521/521 538/538/538
f 520/520/520 538/538/538 537/537/537
f 521/521/521 522/522/522 539/539/539
f 521/521/521 539/539/539 538/538/538
f 522/522/522 523/523/523 540/540/540
f 522/522/522 540/540/540 539/539/539
f 523/523/523 524/524/524 541/541/541
f 523/523/523 541/541/541 540/540/540
f 524/524/524 525/525/525 542/542/542
f 524/524/524 542/542/542 541/541/541
f 525/525/525 526/526/526 543/543/543
f 525/525/525 543/543/543 542/542/542
f 526/526/526 527/527/527 544/544/544
f 526/526/526 544/544/544 543/543/543
f 528/528/528 529/529/529 546/546/546
f 528/528/528 546/546/546 545/545/545
f 529/529/529 530/530/530 547/547/547
f 529/529/529 547/547/547 546/546/546
f 530/530/530 531/531/531 548/548/548
f 530/530/530 548/548/548 547/547/547
f 531/531/531 532/532/532 549/549/549
f 531/531/531 549/549/549 548/548/548
f 532/532/532 533/533/533 550/550/550
f 532/532/532 550/550/550 549/549/549
f 533/533/533 534/534/534 551/551/551
f 533/533/533 551/551/551 550/550/550
f 534/534/534 535/535/535 552/552/552
f 534/534/534 552/552/552 551/551/551
f 535/535/535 536/536/536 553/553/553
f 535/535/535 553/553/553 552/552/552
f 536/536/536 537/537/537 554/554/554
f 536/536/536 554/554/554 553/553/553
f 537/537/537 538/538/538 555/555/555
f 537/537/537 555/555/555 554/554/554
f 538/538/538 539/539/539 556/556/556
f 538/538/538 556/556/556 555/555/555
f 539/539/539 540/540/540 557/557/557
f 539/539/539 557/557/557 556/556/556
f 540/540/540 541/541/541 558/558/558
f 540/540/540 558/558/558 557/557/557
f 541/541/541 542/542/542 559/559/559
f 541/541/541 559/559/559 558/558/558
f 542/542/542 543/543/543 560/560/560
f 542/542/542 560/560/560 559/559/559
f 543/543/543 544/544/544 561/561/561
f 543/543/543 561/561/561 560/560/560
f 545/545/545 546/546/546 563/563/563
f 545/545/545 563/563/563 562/562/562
f 546/546/546 547/547/547 564/564/564
f 546/546/546 564/564/564 563/563/563
f 547/547/547 548/548/548 565/565/565
f 547/547/547 565/565/565 564/564/564
f 548/548/548 549/549/549 566/566/566
f 548/548/548 566/566/566 565/565/565
f 549/549/549 550/550/550 567/567/567
f 549/549/549 567/567/567 566/566/566
f 550/550/550 551/551/551 568/568/568
f 550/550/550 568/568/568 567/567/567
f 551/551/551 552/552/552 569/569/569
f 551/551/551 569/569/569 568/568/568
f 552/552/552 553/553/553 570/570/570
f 552/552/552 570/570/570 569/569/569
f 553/553/553 554/554/554 571/571/571
f 553/553/553 571/571/571 570/570/570
f 554/554/554 555/555/555 572/572/572
f 554/554/554 572/572/572 571/571/571
f 555/555/555 556/556/556 573/573/573
f 555/555/555 573/573/573 572/572/572
f 556/556/556 557/557/557 574/574/574
f 556/556/556 574/574/574 573/573/573
f 557/557/557 558/558/558 575/575/575
f 557/557/557 575/575/575 574/574/574
f 558/558/558 559/559/559 576/576/576
f 558/558/558 576/576/576 575/575/575
f 559/559/559 560/560/560 577/577/577
f 559/559/559 577/577/577 576/576/576
f 560/560/560 561/561/561 578/578/578
f 560/560/560 578/578/578 577/577/577
f 1/1/1 290/290/290 291/291/291
f 1/1/1 291/291/291 2/2/2
f 2/2/2 291/291/291 292/292/292
f 2/2/2 292/292/292 3/3/3
f 3/3/3 292/292/292 293/293/293
f 3/3/3 293/293/293 4/4/4
f 4/4/4 293/293/293 294/294/294
f 4/4/4 294/294/294 5/5/5
f 5/5/5 294/294/294 295/295/295
f 5/5/5 295/295/295 6/6/6
f 6/6/6 295/295/295 296/296/296
f 6/6/6 296/296/296 7/7/7
f 7/7/7 296/296/296 297/297/297
f 7/7/7 297/297/297 8/8/8
f 8/8/8 297/297/297 298/298/298
f 8/8/8 298/298/298 9/9/9
f 9/9/9 298/298/298 299/299/299
f 9/9/9 299/299/299 10/10/10
f 10/10/10 299/299/299 300/300/300
f 10/10/10 300/300/300 11/11/11
f 11/11/11 300/300/300 301/301/301
f 11/11/11 301/301/301 12/12/12
f 12/12/12 301/301/301 302/302/302
f 12/12/12 302/302/302 13/13/13
f 13/13/13 302/302/302 303/303/303
f 13/13/13 303/303/303 14/14/14
f 14/14/14 303/303/303 304/304/304
f 14/14/14 304/304/304 15/15/15
f 15/15/15 304/304/304 305/305/305
f 15/15/15 305/305/305 16/16/16
f 16/16/16 305/305/305 306/306/306
f 16/16/16 306/306/306 17/17/17
f 273/273/273 563/563/563 562/562/562
f 273/273/273 274/274/274 563/563/563
f 274/274/274 564/564/564 563/563/563
f 274/274/274 275/275/275 564/564/564
f 275/275/275 565/565/565 564/564/564
f 275/275/275 276/276/276 565/565/565
f 276/276/276 566/566/566 565/565/565
f 276/276/276 277/277/277 566/566/566
f 277/277/277 567/567/567 566/566/566
f 277/277/277 278/278/278 567/567/567
f 278/278/278 568/568/568 567/567/567
f 278/278/278 279/279/279 568/568/568
f 279/279/279 569/569/569 568/568/568
f 279/279/279 280/280/280 569/569/569
f 280/280/280 570/570/570 569/569/569
f 280/280/280 281/281/281 570/570/570
f 281/281/281 571/571/571 570/570/570
f 281/281/281 282/282/282 571/571/571
f 282/282/282 572/572/572 571/571/571
f 282/282/282 283/283/283 572/572/572
f 283/283/283 573/573/573 572/572/572
f 283/283/283 284/284/284 573/573/573
f 284/284/284 574/574/574 573/573/573
f 284/284/284 285/285/285 574/574/574
f 285/285/285 575/575/575 574/574/574
f 285/285/285 286/286/286 575/575/575
f 286/286/286 576/576/576 575/575/575
f 286/286/286 287/287/287 576/576/576
f 287/287/287 577/577/577 576/576/576
f 287/287/287 288/288/288 577/577/577
f 288/288/288 578/578/578 577/577/577
f 288/288/288 289/289/289 578/578/578
f 1/1/1 307/307/307 290/290/290
f 1/1/1 18/18/18 307/307/307
f 18/18/18 324/324/324 307/307/307
f 18/18/18 35/35/35 324/324/324
f 35/35/35 341/341/341 324/324/324
f 35/35/35 52/52/52 341/341/341
f 52/52/52 358/358/358 341/341/341
f 52/52/52 69/69/69 358/358/358
f 69/69/69 375/375/375 358/358/358
f 69/69/69 86/86/86 375/375/375
f 86/86/86 392/392/392 375/375/375
f 86/86/86 103/103/103 392/392/392
f 103/103/103 409/409/409 392/392/392
f 103/103/103 120/120/120 409/409/409
f 120/120/120 426/426/426 409/409/409
f 120/120/120 137/137/137 426/426/426
f 137/137/137 443/443/443 426/426/426
f 137/137/137 154/154/154 443/443/443
f 154/154/154 460/460/460 443/443/443
f 154/154/154 171/171/171 460/460/460
f 171/171/171 477/477/477 460/460/460
f 171/171/171 188/188/188 477/477/477
f 188/188/188 494/494/494 477/477/477
f 188/188/188 205/205/205 494/494/494
f 205/205/205 511/511/511 494/494/494
f 205/205/205 222/222/222 511/511/511
f 222/222/222 528/528/528 511/511/511
f 222/222/222 239/239/239 528/528/528
f 239/239/239 545/545/545 528/528/528
f 239/239/239 256/256/256 545/545/545
f 256/256/256 562/562/562 545/545/545
f 256/256/256 273/273/273 562/562/562
f 17/17/17 306/306/306 323/323/323
f 17/17/17 323/323/323 34/34/34
f 34/34/34 323/323/323 340/340/340
f 34/34/34 340/340/340 51/51/51
f 51/51/51 340/340/340 357/357/357
f 51/51/51 357/357/357 68/68/68
f 68/68/68 357/357/357 374/374/374
f 68/68/68 374/374/374 85/85/85
f 85/85/85 374/374/374 391/391/391
f 85/85/85 391/391/391 102/102/102
f 102/102/102 391/391/391 408/408/408
f 102/102/102 408/408/408 119/119/119
f 119/119/119 408/408/408 425/425/425
f 119/119/119 425/425/425 136/136/136
f 136/136/136 425/425/425 442/442/442
f 136/136/136 442/442/442 153/153/153
f 153/153/153 442/442/442 459/459/459
f 153/153/153 459/459/459 170/170/170
f 170/170/170 459/459/459 476/476/476
f 170/170/170 476/476/476 187/187/187
f 187/187/187 476/476/476 493/493/493
f 187/187/187 493/493/493 204/204/204
f 204/204/204 493/493/493 510/510/510
f 204/204/204 510/510/510 221/221/221
f 221/221/221 510/510/510 527/527/527
f 221/221/221 527/527/527 238/238/238
f 238/238/238 527/527/527 544/544/544
f 238/238/238 544/544/544 255/255/255
f 255/255/255 544/544/544 561/561/561
f 255/255/255 561/561/561 272/272/272
f 272/272/272 561/561/561 578/578/578
f 272/272/272 578/578/578 289/289/289
